<?xml version="1.0" encoding="UTF-8" standalone="no"?>
<!DOCTYPE svg PUBLIC "-//W3C//DTD SVG 1.1//EN"
 "http://www.w3.org/Graphics/SVG/1.1/DTD/svg11.dtd">
<!-- Generated by graphviz version 2.38.0 (20140413.2041)
 -->
<!-- Title: G Pages: 1 -->
<svg width="1064pt" height="2306pt"
 viewBox="0.00 0.00 1063.54 2306.00" xmlns="http://www.w3.org/2000/svg" xmlns:xlink="http://www.w3.org/1999/xlink">
<g id="graph0" class="graph" transform="scale(1 1) rotate(0) translate(4 2302)">
<title>G</title>
<polygon fill="white" stroke="none" points="-4,4 -4,-2302 1059.54,-2302 1059.54,4 -4,4"/>
<g id="clust1" class="cluster"><title>cluster_Global</title>
<path fill="none" stroke="gray" d="M540.901,-90C540.901,-90 1035.54,-90 1035.54,-90 1041.54,-90 1047.54,-96 1047.54,-102 1047.54,-102 1047.54,-2278 1047.54,-2278 1047.54,-2284 1041.54,-2290 1035.54,-2290 1035.54,-2290 540.901,-2290 540.901,-2290 534.901,-2290 528.901,-2284 528.901,-2278 528.901,-2278 528.901,-102 528.901,-102 528.901,-96 534.901,-90 540.901,-90"/>
<text text-anchor="middle" x="788.221" y="-2277.2" font-family="Times,serif" font-size="11.00" fill="gray">Global</text>
</g>
<g id="clust2" class="cluster"><title>cluster_\Application</title>
<path fill="none" stroke="gray" d="M548.901,-805C548.901,-805 703.901,-805 703.901,-805 709.901,-805 715.901,-811 715.901,-817 715.901,-817 715.901,-1307 715.901,-1307 715.901,-1313 709.901,-1319 703.901,-1319 703.901,-1319 548.901,-1319 548.901,-1319 542.901,-1319 536.901,-1313 536.901,-1307 536.901,-1307 536.901,-817 536.901,-817 536.901,-811 542.901,-805 548.901,-805"/>
<text text-anchor="middle" x="626.401" y="-1306.2" font-family="Times,serif" font-size="11.00" fill="gray">Application</text>
</g>
<g id="clust3" class="cluster"><title>cluster_\Application\Controller</title>
<path fill="none" stroke="gray" d="M556.901,-859C556.901,-859 695.901,-859 695.901,-859 701.901,-859 707.901,-865 707.901,-871 707.901,-871 707.901,-1109 707.901,-1109 707.901,-1115 701.901,-1121 695.901,-1121 695.901,-1121 556.901,-1121 556.901,-1121 550.901,-1121 544.901,-1115 544.901,-1109 544.901,-1109 544.901,-871 544.901,-871 544.901,-865 550.901,-859 556.901,-859"/>
<text text-anchor="middle" x="626.401" y="-1108.2" font-family="Times,serif" font-size="11.00" fill="gray">Controller</text>
</g>
<g id="clust4" class="cluster"><title>cluster_\Application\Controller\Factory</title>
<path fill="none" stroke="gray" d="M564.901,-1021C564.901,-1021 687.901,-1021 687.901,-1021 693.901,-1021 699.901,-1027 699.901,-1033 699.901,-1033 699.901,-1081 699.901,-1081 699.901,-1087 693.901,-1093 687.901,-1093 687.901,-1093 564.901,-1093 564.901,-1093 558.901,-1093 552.901,-1087 552.901,-1081 552.901,-1081 552.901,-1033 552.901,-1033 552.901,-1027 558.901,-1021 564.901,-1021"/>
<text text-anchor="middle" x="626.401" y="-1080.2" font-family="Times,serif" font-size="11.00" fill="gray">Factory</text>
</g>
<g id="clust5" class="cluster"><title>cluster_\Application\Model</title>
<path fill="none" stroke="gray" d="M570.401,-1129C570.401,-1129 682.401,-1129 682.401,-1129 688.401,-1129 694.401,-1135 694.401,-1141 694.401,-1141 694.401,-1279 694.401,-1279 694.401,-1285 688.401,-1291 682.401,-1291 682.401,-1291 570.401,-1291 570.401,-1291 564.401,-1291 558.401,-1285 558.401,-1279 558.401,-1279 558.401,-1141 558.401,-1141 558.401,-1135 564.401,-1129 570.401,-1129"/>
<text text-anchor="middle" x="626.401" y="-1278.2" font-family="Times,serif" font-size="11.00" fill="gray">Model</text>
</g>
<g id="clust6" class="cluster"><title>cluster_\Application\Model\Entity</title>
<path fill="none" stroke="gray" d="M578.401,-1137C578.401,-1137 674.401,-1137 674.401,-1137 680.401,-1137 686.401,-1143 686.401,-1149 686.401,-1149 686.401,-1251 686.401,-1251 686.401,-1257 680.401,-1263 674.401,-1263 674.401,-1263 578.401,-1263 578.401,-1263 572.401,-1263 566.401,-1257 566.401,-1251 566.401,-1251 566.401,-1149 566.401,-1149 566.401,-1143 572.401,-1137 578.401,-1137"/>
<text text-anchor="middle" x="626.401" y="-1250.2" font-family="Times,serif" font-size="11.00" fill="gray">Entity</text>
</g>
<g id="clust7" class="cluster"><title>cluster_\User</title>
<path fill="none" stroke="gray" d="M797.541,-98C797.541,-98 1027.54,-98 1027.54,-98 1033.54,-98 1039.54,-104 1039.54,-110 1039.54,-110 1039.54,-794 1039.54,-794 1039.54,-800 1033.54,-806 1027.54,-806 1027.54,-806 797.541,-806 797.541,-806 791.541,-806 785.541,-800 785.541,-794 785.541,-794 785.541,-110 785.541,-110 785.541,-104 791.541,-98 797.541,-98"/>
<text text-anchor="middle" x="912.541" y="-793.2" font-family="Times,serif" font-size="11.00" fill="gray">User</text>
</g>
<g id="clust8" class="cluster"><title>cluster_\User\Controller</title>
<path fill="none" stroke="gray" d="M829.541,-454C829.541,-454 995.541,-454 995.541,-454 1001.54,-454 1007.54,-460 1007.54,-466 1007.54,-466 1007.54,-650 1007.54,-650 1007.54,-656 1001.54,-662 995.541,-662 995.541,-662 829.541,-662 829.541,-662 823.541,-662 817.541,-656 817.541,-650 817.541,-650 817.541,-466 817.541,-466 817.541,-460 823.541,-454 829.541,-454"/>
<text text-anchor="middle" x="912.541" y="-649.2" font-family="Times,serif" font-size="11.00" fill="gray">Controller</text>
</g>
<g id="clust9" class="cluster"><title>cluster_\User\Controller\Factory</title>
<path fill="none" stroke="gray" d="M837.541,-562C837.541,-562 987.541,-562 987.541,-562 993.541,-562 999.541,-568 999.541,-574 999.541,-574 999.541,-622 999.541,-622 999.541,-628 993.541,-634 987.541,-634 987.541,-634 837.541,-634 837.541,-634 831.541,-634 825.541,-628 825.541,-622 825.541,-622 825.541,-574 825.541,-574 825.541,-568 831.541,-562 837.541,-562"/>
<text text-anchor="middle" x="912.541" y="-621.2" font-family="Times,serif" font-size="11.00" fill="gray">Factory</text>
</g>
<g id="clust10" class="cluster"><title>cluster_\User\Service</title>
<path fill="none" stroke="gray" d="M805.541,-670C805.541,-670 1019.54,-670 1019.54,-670 1025.54,-670 1031.54,-676 1031.54,-682 1031.54,-682 1031.54,-766 1031.54,-766 1031.54,-772 1025.54,-778 1019.54,-778 1019.54,-778 805.541,-778 805.541,-778 799.541,-778 793.541,-772 793.541,-766 793.541,-766 793.541,-682 793.541,-682 793.541,-676 799.541,-670 805.541,-670"/>
<text text-anchor="middle" x="912.541" y="-765.2" font-family="Times,serif" font-size="11.00" fill="gray">Service</text>
</g>
<g id="clust11" class="cluster"><title>cluster_\User\Service\Factory</title>
<path fill="none" stroke="gray" d="M813.541,-678C813.541,-678 1011.54,-678 1011.54,-678 1017.54,-678 1023.54,-684 1023.54,-690 1023.54,-690 1023.54,-738 1023.54,-738 1023.54,-744 1017.54,-750 1011.54,-750 1011.54,-750 813.541,-750 813.541,-750 807.541,-750 801.541,-744 801.541,-738 801.541,-738 801.541,-690 801.541,-690 801.541,-684 807.541,-678 813.541,-678"/>
<text text-anchor="middle" x="912.541" y="-737.2" font-family="Times,serif" font-size="11.00" fill="gray">Factory</text>
</g>
<g id="clust12" class="cluster"><title>cluster_\User\Model</title>
<path fill="none" stroke="gray" d="M846.041,-150C846.041,-150 979.041,-150 979.041,-150 985.041,-150 991.041,-156 991.041,-162 991.041,-162 991.041,-434 991.041,-434 991.041,-440 985.041,-446 979.041,-446 979.041,-446 846.041,-446 846.041,-446 840.041,-446 834.041,-440 834.041,-434 834.041,-434 834.041,-162 834.041,-162 834.041,-156 840.041,-150 846.041,-150"/>
<text text-anchor="middle" x="912.541" y="-433.2" font-family="Times,serif" font-size="11.00" fill="gray">Model</text>
</g>
<g id="clust13" class="cluster"><title>cluster_\User\Model\Entity</title>
<path fill="none" stroke="gray" d="M884.541,-292C884.541,-292 940.541,-292 940.541,-292 946.541,-292 952.541,-298 952.541,-304 952.541,-304 952.541,-406 952.541,-406 952.541,-412 946.541,-418 940.541,-418 940.541,-418 884.541,-418 884.541,-418 878.541,-418 872.541,-412 872.541,-406 872.541,-406 872.541,-304 872.541,-304 872.541,-298 878.541,-292 884.541,-292"/>
<text text-anchor="middle" x="912.541" y="-405.2" font-family="Times,serif" font-size="11.00" fill="gray">Entity</text>
</g>
<g id="clust14" class="cluster"><title>cluster_\User\Model\Validation</title>
<path fill="none" stroke="gray" d="M854.041,-158C854.041,-158 971.041,-158 971.041,-158 977.041,-158 983.041,-164 983.041,-170 983.041,-170 983.041,-272 983.041,-272 983.041,-278 977.041,-284 971.041,-284 971.041,-284 854.041,-284 854.041,-284 848.041,-284 842.041,-278 842.041,-272 842.041,-272 842.041,-170 842.041,-170 842.041,-164 848.041,-158 854.041,-158"/>
<text text-anchor="middle" x="912.541" y="-271.2" font-family="Times,serif" font-size="11.00" fill="gray">Validation</text>
</g>
<g id="clust15" class="cluster"><title>cluster_\SourceCode</title>
<path fill="none" stroke="gray" d="M828.041,-814C828.041,-814 997.041,-814 997.041,-814 1003.04,-814 1009.04,-820 1009.04,-826 1009.04,-826 1009.04,-2250 1009.04,-2250 1009.04,-2256 1003.04,-2262 997.041,-2262 997.041,-2262 828.041,-2262 828.041,-2262 822.041,-2262 816.041,-2256 816.041,-2250 816.041,-2250 816.041,-826 816.041,-826 816.041,-820 822.041,-814 828.041,-814"/>
<text text-anchor="middle" x="912.541" y="-2249.2" font-family="Times,serif" font-size="11.00" fill="gray">SourceCode</text>
</g>
<g id="clust16" class="cluster"><title>cluster_\SourceCode\Controller</title>
<path fill="none" stroke="gray" d="M840.541,-2054C840.541,-2054 984.541,-2054 984.541,-2054 990.541,-2054 996.541,-2060 996.541,-2066 996.541,-2066 996.541,-2222 996.541,-2222 996.541,-2228 990.541,-2234 984.541,-2234 984.541,-2234 840.541,-2234 840.541,-2234 834.541,-2234 828.541,-2228 828.541,-2222 828.541,-2222 828.541,-2066 828.541,-2066 828.541,-2060 834.541,-2054 840.541,-2054"/>
<text text-anchor="middle" x="912.541" y="-2221.2" font-family="Times,serif" font-size="11.00" fill="gray">Controller</text>
</g>
<g id="clust17" class="cluster"><title>cluster_\SourceCode\Service</title>
<path fill="none" stroke="gray" d="M851.041,-1758C851.041,-1758 974.041,-1758 974.041,-1758 980.041,-1758 986.041,-1764 986.041,-1770 986.041,-1770 986.041,-2034 986.041,-2034 986.041,-2040 980.041,-2046 974.041,-2046 974.041,-2046 851.041,-2046 851.041,-2046 845.041,-2046 839.041,-2040 839.041,-2034 839.041,-2034 839.041,-1770 839.041,-1770 839.041,-1764 845.041,-1758 851.041,-1758"/>
<text text-anchor="middle" x="912.541" y="-2033.2" font-family="Times,serif" font-size="11.00" fill="gray">Service</text>
</g>
<g id="clust18" class="cluster"><title>cluster_\SourceCode\Model</title>
<path fill="none" stroke="gray" d="M836.041,-868C836.041,-868 989.041,-868 989.041,-868 995.041,-868 1001.04,-874 1001.04,-880 1001.04,-880 1001.04,-1738 1001.04,-1738 1001.04,-1744 995.041,-1750 989.041,-1750 989.041,-1750 836.041,-1750 836.041,-1750 830.041,-1750 824.041,-1744 824.041,-1738 824.041,-1738 824.041,-880 824.041,-880 824.041,-874 830.041,-868 836.041,-868"/>
<text text-anchor="middle" x="912.541" y="-1737.2" font-family="Times,serif" font-size="11.00" fill="gray">Model</text>
</g>
<g id="clust19" class="cluster"><title>cluster_\SourceCode\Model\Entity</title>
<path fill="none" stroke="gray" d="M851.041,-1110C851.041,-1110 974.041,-1110 974.041,-1110 980.041,-1110 986.041,-1116 986.041,-1122 986.041,-1122 986.041,-1710 986.041,-1710 986.041,-1716 980.041,-1722 974.041,-1722 974.041,-1722 851.041,-1722 851.041,-1722 845.041,-1722 839.041,-1716 839.041,-1710 839.041,-1710 839.041,-1122 839.041,-1122 839.041,-1116 845.041,-1110 851.041,-1110"/>
<text text-anchor="middle" x="912.541" y="-1709.2" font-family="Times,serif" font-size="11.00" fill="gray">Entity</text>
</g>
<g id="clust20" class="cluster"><title>cluster_\SourceCode\Model\Validation</title>
<path fill="none" stroke="gray" d="M844.041,-976C844.041,-976 981.041,-976 981.041,-976 987.041,-976 993.041,-982 993.041,-988 993.041,-988 993.041,-1090 993.041,-1090 993.041,-1096 987.041,-1102 981.041,-1102 981.041,-1102 844.041,-1102 844.041,-1102 838.041,-1102 832.041,-1096 832.041,-1090 832.041,-1090 832.041,-988 832.041,-988 832.041,-982 838.041,-976 844.041,-976"/>
<text text-anchor="middle" x="912.541" y="-1089.2" font-family="Times,serif" font-size="11.00" fill="gray">Validation</text>
</g>
<!-- \\Application\\Controller\\Factory\\ControllerFactory -->
<g id="node1" class="node"><title>\\Application\\Controller\\Factory\\ControllerFactory</title>
<polygon fill="none" stroke="black" points="691.901,-1065 560.901,-1065 560.901,-1029 691.901,-1029 691.901,-1065"/>
<text text-anchor="middle" x="626.401" y="-1044.2" font-family="Courier,monospace" font-size="11.00">ControllerFactory</text>
</g>
<!-- \\Zend\\ServiceManager\\Factory\\FactoryInterface -->
<g id="node42" class="node"><title>\\Zend\\ServiceManager\\Factory\\FactoryInterface</title>
<ellipse fill="none" stroke="black" cx="221.63" cy="-1060" rx="181.168" ry="18"/>
<text text-anchor="middle" x="221.63" y="-1056.3" font-family="Times,serif" font-size="14.00" fill="gray">\Zend\ServiceManager\Factory\FactoryInterface</text>
</g>
<!-- \\Application\\Controller\\Factory\\ControllerFactory&#45;&gt;\\Zend\\ServiceManager\\Factory\\FactoryInterface -->
<g id="edge2" class="edge"><title>\\Application\\Controller\\Factory\\ControllerFactory&#45;&gt;\\Zend\\ServiceManager\\Factory\\FactoryInterface</title>
<path fill="none" stroke="black" stroke-dasharray="1,5" d="M560.689,-1049.09C518.209,-1050.46 460.368,-1052.33 404.542,-1054.13"/>
<polygon fill="none" stroke="black" points="404.393,-1050.63 394.511,-1054.45 404.619,-1057.63 404.393,-1050.63"/>
</g>
<!-- \\Application\\Controller\\ActionController -->
<g id="node2" class="node"><title>\\Application\\Controller\\ActionController</title>
<polygon fill="none" stroke="black" points="688.901,-1011 563.901,-1011 563.901,-975 688.901,-975 688.901,-1011"/>
<text text-anchor="start" x="592.401" y="-996.2" font-family="Courier,monospace" font-size="11.00">«abstract»</text>
<text text-anchor="start" x="571.901" y="-984.2" font-family="Courier,monospace" font-size="11.00">ActionController</text>
</g>
<!-- \\Zend\\Mvc\\Controller\\AbstractActionController -->
<g id="node41" class="node"><title>\\Zend\\Mvc\\Controller\\AbstractActionController</title>
<ellipse fill="none" stroke="black" cx="221.63" cy="-979" rx="180.868" ry="18"/>
<text text-anchor="middle" x="221.63" y="-975.3" font-family="Times,serif" font-size="14.00" fill="gray">\Zend\Mvc\Controller\AbstractActionController</text>
</g>
<!-- \\Application\\Controller\\ActionController&#45;&gt;\\Zend\\Mvc\\Controller\\AbstractActionController -->
<g id="edge1" class="edge"><title>\\Application\\Controller\\ActionController&#45;&gt;\\Zend\\Mvc\\Controller\\AbstractActionController</title>
<path fill="none" stroke="black" d="M563.79,-990.858C520.565,-989.356 460.386,-987.264 402.589,-985.255"/>
<polygon fill="none" stroke="black" points="402.701,-981.757 392.586,-984.908 402.458,-988.753 402.701,-981.757"/>
</g>
<!-- \\Application\\Controller\\RestfulController -->
<g id="node3" class="node"><title>\\Application\\Controller\\RestfulController</title>
<polygon fill="none" stroke="black" points="691.901,-903 560.901,-903 560.901,-867 691.901,-867 691.901,-903"/>
<text text-anchor="start" x="592.401" y="-888.2" font-family="Courier,monospace" font-size="11.00">«abstract»</text>
<text text-anchor="start" x="568.901" y="-876.2" font-family="Courier,monospace" font-size="11.00">RestfulController</text>
</g>
<!-- \\Zend\\Mvc\\Controller\\AbstractRestfulController -->
<g id="node43" class="node"><title>\\Zend\\Mvc\\Controller\\AbstractRestfulController</title>
<ellipse fill="none" stroke="black" cx="221.63" cy="-885" rx="182.768" ry="18"/>
<text text-anchor="middle" x="221.63" y="-881.3" font-family="Times,serif" font-size="14.00" fill="gray">\Zend\Mvc\Controller\AbstractRestfulController</text>
</g>
<!-- \\Application\\Controller\\RestfulController&#45;&gt;\\Zend\\Mvc\\Controller\\AbstractRestfulController -->
<g id="edge3" class="edge"><title>\\Application\\Controller\\RestfulController&#45;&gt;\\Zend\\Mvc\\Controller\\AbstractRestfulController</title>
<path fill="none" stroke="black" d="M560.689,-885C520.788,-885 467.333,-885 414.725,-885"/>
<polygon fill="none" stroke="black" points="414.568,-881.5 404.568,-885 414.568,-888.5 414.568,-881.5"/>
</g>
<!-- \\Application\\Controller\\IndexController -->
<g id="node4" class="node"><title>\\Application\\Controller\\IndexController</title>
<polygon fill="none" stroke="black" points="685.401,-957 567.401,-957 567.401,-921 685.401,-921 685.401,-957"/>
<text text-anchor="middle" x="626.401" y="-936.2" font-family="Courier,monospace" font-size="11.00">IndexController</text>
</g>
<!-- \\Application\\Controller\\IndexController&#45;&gt;\\Zend\\Mvc\\Controller\\AbstractActionController -->
<g id="edge4" class="edge"><title>\\Application\\Controller\\IndexController&#45;&gt;\\Zend\\Mvc\\Controller\\AbstractActionController</title>
<path fill="none" stroke="black" d="M567.265,-944.774C513.382,-950.125 431.133,-958.293 360.499,-965.308"/>
<polygon fill="none" stroke="black" points="359.771,-961.863 350.166,-966.334 360.463,-968.829 359.771,-961.863"/>
</g>
<!-- \\Application\\Model\\Entity\\Entity -->
<g id="node5" class="node"><title>\\Application\\Model\\Entity\\Entity</title>
<polygon fill="none" stroke="black" points="668.401,-1235 584.401,-1235 584.401,-1199 668.401,-1199 668.401,-1235"/>
<text text-anchor="start" x="592.401" y="-1220.2" font-family="Courier,monospace" font-size="11.00">«abstract»</text>
<text text-anchor="start" x="605.901" y="-1208.2" font-family="Courier,monospace" font-size="11.00">Entity</text>
</g>
<!-- \\Application\\Model\\Entity\\OrderTemplate -->
<g id="node6" class="node"><title>\\Application\\Model\\Entity\\OrderTemplate</title>
<polygon fill="none" stroke="black" points="678.401,-1181 574.401,-1181 574.401,-1145 678.401,-1145 678.401,-1181"/>
<text text-anchor="middle" x="626.401" y="-1160.2" font-family="Courier,monospace" font-size="11.00">OrderTemplate</text>
</g>
<!-- \\Application\\Module -->
<g id="node7" class="node"><title>\\Application\\Module</title>
<polygon fill="none" stroke="black" points="654.901,-849 597.901,-849 597.901,-813 654.901,-813 654.901,-849"/>
<text text-anchor="middle" x="626.401" y="-828.2" font-family="Courier,monospace" font-size="11.00">Module</text>
</g>
<!-- \\Zend\\ModuleManager\\Feature\\ConfigProviderInterface -->
<g id="node44" class="node"><title>\\Zend\\ModuleManager\\Feature\\ConfigProviderInterface</title>
<ellipse fill="none" stroke="black" cx="221.63" cy="-126" rx="209.863" ry="18"/>
<text text-anchor="middle" x="221.63" y="-122.3" font-family="Times,serif" font-size="14.00" fill="gray">\Zend\ModuleManager\Feature\ConfigProviderInterface</text>
</g>
<!-- \\Application\\Module&#45;&gt;\\Zend\\ModuleManager\\Feature\\ConfigProviderInterface -->
<g id="edge5" class="edge"><title>\\Application\\Module&#45;&gt;\\Zend\\ModuleManager\\Feature\\ConfigProviderInterface</title>
<path fill="none" stroke="black" stroke-dasharray="1,5" d="M615.04,-812.864C560.188,-716.853 303.723,-267.942 238.004,-152.91"/>
<polygon fill="none" stroke="black" points="240.922,-150.962 232.923,-144.016 234.844,-154.435 240.922,-150.962"/>
</g>
<!-- \\Zend\\ModuleManager\\Feature\\ServiceProviderInterface -->
<g id="node45" class="node"><title>\\Zend\\ModuleManager\\Feature\\ServiceProviderInterface</title>
<ellipse fill="none" stroke="black" cx="221.63" cy="-72" rx="211.762" ry="18"/>
<text text-anchor="middle" x="221.63" y="-68.3" font-family="Times,serif" font-size="14.00" fill="gray">\Zend\ModuleManager\Feature\ServiceProviderInterface</text>
</g>
<!-- \\Application\\Module&#45;&gt;\\Zend\\ModuleManager\\Feature\\ServiceProviderInterface -->
<g id="edge6" class="edge"><title>\\Application\\Module&#45;&gt;\\Zend\\ModuleManager\\Feature\\ServiceProviderInterface</title>
<path fill="none" stroke="black" stroke-dasharray="1,5" d="M623.636,-812.97C613.193,-710.134 556.051,-198.796 443.261,-99 437.012,-93.4712 430.245,-88.6837 423.092,-84.5517"/>
<polygon fill="none" stroke="black" points="424.312,-81.2378 413.835,-79.662 421.042,-87.4274 424.312,-81.2378"/>
</g>
<!-- \\Zend\\ModuleManager\\Feature\\ControllerProviderInterface -->
<g id="node46" class="node"><title>\\Zend\\ModuleManager\\Feature\\ControllerProviderInterface</title>
<ellipse fill="none" stroke="black" cx="221.63" cy="-18" rx="221.761" ry="18"/>
<text text-anchor="middle" x="221.63" y="-14.3" font-family="Times,serif" font-size="14.00" fill="gray">\Zend\ModuleManager\Feature\ControllerProviderInterface</text>
</g>
<!-- \\Application\\Module&#45;&gt;\\Zend\\ModuleManager\\Feature\\ControllerProviderInterface -->
<g id="edge7" class="edge"><title>\\Application\\Module&#45;&gt;\\Zend\\ModuleManager\\Feature\\ControllerProviderInterface</title>
<path fill="none" stroke="black" stroke-dasharray="1,5" d="M623.942,-812.723C614.947,-704.913 563.427,-153.065 443.261,-45 437.639,-39.944 431.585,-35.5038 425.198,-31.6148"/>
<polygon fill="none" stroke="black" points="426.73,-28.4617 416.292,-26.6471 423.32,-34.575 426.73,-28.4617"/>
</g>
<!-- \\User\\Controller\\Factory\\AuthControllerFactory -->
<g id="node8" class="node"><title>\\User\\Controller\\Factory\\AuthControllerFactory</title>
<polygon fill="none" stroke="black" points="991.541,-606 833.541,-606 833.541,-570 991.541,-570 991.541,-606"/>
<text text-anchor="middle" x="912.541" y="-585.2" font-family="Courier,monospace" font-size="11.00">AuthControllerFactory</text>
</g>
<!-- \\User\\Controller\\Factory\\AuthControllerFactory&#45;&gt;\\Zend\\ServiceManager\\Factory\\FactoryInterface -->
<g id="edge10" class="edge"><title>\\User\\Controller\\Factory\\AuthControllerFactory&#45;&gt;\\Zend\\ServiceManager\\Factory\\FactoryInterface</title>
<path fill="none" stroke="black" stroke-dasharray="1,5" d="M866.99,-606.135C838.572,-620.203 803.769,-642.627 785.541,-674 652.708,-902.631 874.101,-1040.58 737.541,-1267 707.586,-1316.67 682.996,-1320.47 627.401,-1337"/>
<path fill="none" stroke="black" stroke-dasharray="1,5" d="M625.401,-1337C453.431,-1388.14 290.817,-1165.91 239.382,-1086.94"/>
<polygon fill="none" stroke="black" points="242.019,-1084.57 233.668,-1078.05 236.13,-1088.35 242.019,-1084.57"/>
</g>
<!-- \\User\\Controller\\UserController -->
<g id="node9" class="node"><title>\\User\\Controller\\UserController</title>
<polygon fill="none" stroke="black" points="968.041,-552 857.041,-552 857.041,-516 968.041,-516 968.041,-552"/>
<text text-anchor="middle" x="912.541" y="-531.2" font-family="Courier,monospace" font-size="11.00">UserController</text>
</g>
<!-- \\User\\Controller\\UserController&#45;&gt;\\Application\\Controller\\RestfulController -->
<g id="edge8" class="edge"><title>\\User\\Controller\\UserController&#45;&gt;\\Application\\Controller\\RestfulController</title>
<path fill="none" stroke="black" d="M856.79,-530.968C831.78,-532.606 803.743,-539.204 785.541,-558 690.08,-656.578 832.561,-763.997 737.541,-863 727.98,-872.962 715.281,-879.096 701.911,-882.758"/>
<polygon fill="none" stroke="black" points="701.06,-879.362 692.093,-885.006 702.622,-886.186 701.06,-879.362"/>
</g>
<!-- \\User\\Controller\\AuthController -->
<g id="node10" class="node"><title>\\User\\Controller\\AuthController</title>
<polygon fill="none" stroke="black" points="968.041,-498 857.041,-498 857.041,-462 968.041,-462 968.041,-498"/>
<text text-anchor="middle" x="912.541" y="-477.2" font-family="Courier,monospace" font-size="11.00">AuthController</text>
</g>
<!-- \\User\\Controller\\AuthController&#45;&gt;\\Application\\Controller\\RestfulController -->
<g id="edge9" class="edge"><title>\\User\\Controller\\AuthController&#45;&gt;\\Application\\Controller\\RestfulController</title>
<path fill="none" stroke="black" d="M856.807,-478.191C831.646,-480.378 803.474,-487.628 785.541,-507 677.082,-624.158 846.814,-746.601 737.541,-863 728.037,-873.124 715.297,-879.318 701.857,-882.985"/>
<polygon fill="none" stroke="black" points="700.96,-879.6 691.984,-885.228 702.511,-886.426 700.96,-879.6"/>
</g>
<!-- \\User\\Service\\Factory\\AuthenticationServiceFactory -->
<g id="node11" class="node"><title>\\User\\Service\\Factory\\AuthenticationServiceFactory</title>
<polygon fill="none" stroke="black" points="1015.54,-722 809.541,-722 809.541,-686 1015.54,-686 1015.54,-722"/>
<text text-anchor="middle" x="912.541" y="-701.2" font-family="Courier,monospace" font-size="11.00">AuthenticationServiceFactory</text>
</g>
<!-- \\User\\Service\\Factory\\AuthenticationServiceFactory&#45;&gt;\\Zend\\ServiceManager\\Factory\\FactoryInterface -->
<g id="edge11" class="edge"><title>\\User\\Service\\Factory\\AuthenticationServiceFactory&#45;&gt;\\Zend\\ServiceManager\\Factory\\FactoryInterface</title>
<path fill="none" stroke="black" stroke-dasharray="1,5" d="M878.168,-722.03C848.395,-740.063 806.383,-770.737 785.541,-810 689.783,-990.387 845.096,-1093.39 737.541,-1267 706.995,-1316.31 682.996,-1320.47 627.401,-1337"/>
</g>
<!-- \\User\\Model\\Entity\\Profile -->
<g id="node12" class="node"><title>\\User\\Model\\Entity\\Profile</title>
<polygon fill="none" stroke="black" points="944.541,-390 880.541,-390 880.541,-354 944.541,-354 944.541,-390"/>
<text text-anchor="middle" x="912.541" y="-369.2" font-family="Courier,monospace" font-size="11.00">Profile</text>
</g>
<!-- \\User\\Model\\Entity\\Profile&#45;&gt;\\Application\\Model\\Entity\\Entity -->
<g id="edge15" class="edge"><title>\\User\\Model\\Entity\\Profile&#45;&gt;\\Application\\Model\\Entity\\Entity</title>
<path fill="none" stroke="black" d="M880.33,-381.896C850.375,-393.197 806.661,-414.817 785.541,-450 700.727,-591.288 843.397,-1063.71 737.541,-1190 723.184,-1207.13 699.902,-1214.38 678.433,-1217.14"/>
<polygon fill="none" stroke="black" points="678.018,-1213.66 668.413,-1218.13 678.71,-1220.63 678.018,-1213.66"/>
</g>
<!-- \\User\\Model\\Entity\\User -->
<g id="node13" class="node"><title>\\User\\Model\\Entity\\User</title>
<polygon fill="none" stroke="black" points="939.541,-336 885.541,-336 885.541,-300 939.541,-300 939.541,-336"/>
<text text-anchor="middle" x="912.541" y="-315.2" font-family="Courier,monospace" font-size="11.00">User</text>
</g>
<!-- \\User\\Model\\Entity\\User&#45;&gt;\\Application\\Model\\Entity\\Entity -->
<g id="edge16" class="edge"><title>\\User\\Model\\Entity\\User&#45;&gt;\\Application\\Model\\Entity\\Entity</title>
<path fill="none" stroke="black" d="M885.517,-315.245C856.335,-313.763 809.916,-316.539 785.541,-345 663.197,-487.851 857.778,-1045.37 737.541,-1190 723.253,-1207.19 699.979,-1214.44 678.498,-1217.19"/>
<polygon fill="none" stroke="black" points="678.077,-1213.71 668.469,-1218.18 678.765,-1220.68 678.077,-1213.71"/>
</g>
<!-- \\User\\Model\\Validation\\ProfileValidator -->
<g id="node14" class="node"><title>\\User\\Model\\Validation\\ProfileValidator</title>
<polygon fill="none" stroke="black" points="975.041,-256 850.041,-256 850.041,-220 975.041,-220 975.041,-256"/>
<text text-anchor="middle" x="912.541" y="-235.2" font-family="Courier,monospace" font-size="11.00">ProfileValidator</text>
</g>
<!-- \\Zend\\InputFilter\\InputFilter -->
<g id="node47" class="node"><title>\\Zend\\InputFilter\\InputFilter</title>
<ellipse fill="none" stroke="black" cx="626.401" cy="-64" rx="111.28" ry="18"/>
<text text-anchor="middle" x="626.401" y="-60.3" font-family="Times,serif" font-size="14.00" fill="gray">\Zend\InputFilter\InputFilter</text>
</g>
<!-- \\User\\Model\\Validation\\ProfileValidator&#45;&gt;\\Zend\\InputFilter\\InputFilter -->
<g id="edge17" class="edge"><title>\\User\\Model\\Validation\\ProfileValidator&#45;&gt;\\Zend\\InputFilter\\InputFilter</title>
<path fill="none" stroke="black" d="M849.84,-236.173C827.585,-232.762 803.544,-225.561 785.541,-211 745.016,-178.222 775.722,-139.48 737.541,-104 727.744,-94.896 715.715,-87.8299 703.246,-82.3555"/>
<polygon fill="none" stroke="black" points="704.239,-78.9812 693.656,-78.472 701.611,-85.4694 704.239,-78.9812"/>
</g>
<!-- \\User\\Model\\Validation\\UserValidator -->
<g id="node15" class="node"><title>\\User\\Model\\Validation\\UserValidator</title>
<polygon fill="none" stroke="black" points="964.541,-202 860.541,-202 860.541,-166 964.541,-166 964.541,-202"/>
<text text-anchor="middle" x="912.541" y="-181.2" font-family="Courier,monospace" font-size="11.00">UserValidator</text>
</g>
<!-- \\User\\Model\\Validation\\UserValidator&#45;&gt;\\Zend\\InputFilter\\InputFilter -->
<g id="edge18" class="edge"><title>\\User\\Model\\Validation\\UserValidator&#45;&gt;\\Zend\\InputFilter\\InputFilter</title>
<path fill="none" stroke="black" d="M860.311,-183.126C836.257,-180.765 808.008,-175.048 785.541,-162 756.606,-145.196 764.892,-123.276 737.541,-104 725.128,-95.2518 710.589,-88.2043 696.219,-82.6096"/>
<polygon fill="none" stroke="black" points="697.418,-79.3214 686.825,-79.1395 694.993,-85.8877 697.418,-79.3214"/>
</g>
<!-- \\User\\Module -->
<g id="node16" class="node"><title>\\User\\Module</title>
<polygon fill="none" stroke="black" points="941.041,-142 884.041,-142 884.041,-106 941.041,-106 941.041,-142"/>
<text text-anchor="middle" x="912.541" y="-121.2" font-family="Courier,monospace" font-size="11.00">Module</text>
</g>
<!-- \\User\\Module&#45;&gt;\\Zend\\ModuleManager\\Feature\\ConfigProviderInterface -->
<g id="edge12" class="edge"><title>\\User\\Module&#45;&gt;\\Zend\\ModuleManager\\Feature\\ConfigProviderInterface</title>
<path fill="none" stroke="black" stroke-dasharray="1,5" d="M625.401,-18C576.033,-12.4938 560.185,-15.8028 515.261,-37 477.069,-55.0202 481.882,-81.9218 443.261,-99 430.357,-104.706 416.638,-109.333 402.601,-113.073"/>
<polygon fill="none" stroke="black" points="401.686,-109.694 392.838,-115.522 403.389,-116.483 401.686,-109.694"/>
</g>
<!-- \\User\\Module&#45;&gt;\\Zend\\ModuleManager\\Feature\\ServiceProviderInterface -->
<g id="edge13" class="edge"><title>\\User\\Module&#45;&gt;\\Zend\\ModuleManager\\Feature\\ServiceProviderInterface</title>
<path fill="none" stroke="black" stroke-dasharray="1,5" d="M625.401,-18C544.069,-8.92885 524.358,-34.0288 443.261,-45 415.21,-48.7948 385.121,-52.6317 356.464,-56.1749"/>
<polygon fill="none" stroke="black" points="355.89,-52.719 346.393,-57.4154 356.745,-59.6665 355.89,-52.719"/>
</g>
<!-- \\User\\Module&#45;&gt;\\Zend\\ModuleManager\\Feature\\ControllerProviderInterface -->
<g id="edge14" class="edge"><title>\\User\\Module&#45;&gt;\\Zend\\ModuleManager\\Feature\\ControllerProviderInterface</title>
<path fill="none" stroke="black" stroke-dasharray="1,5" d="M883.998,-107.03C850.577,-87.2077 791.931,-54.8577 737.541,-37 690.345,-21.5045 676.769,-23.5062 627.401,-18"/>
<path fill="none" stroke="black" stroke-dasharray="1,5" d="M625.401,-18C560.837,-10.799 490.089,-8.82463 426.148,-9.23169"/>
<polygon fill="none" stroke="black" points="425.917,-5.7334 415.946,-9.31703 425.975,-12.7332 425.917,-5.7334"/>
</g>
<!-- \\SourceCode\\Controller\\SourceCodeController -->
<g id="node17" class="node"><title>\\SourceCode\\Controller\\SourceCodeController</title>
<polygon fill="none" stroke="black" points="988.541,-2206 836.541,-2206 836.541,-2170 988.541,-2170 988.541,-2206"/>
<text text-anchor="middle" x="912.541" y="-2185.2" font-family="Courier,monospace" font-size="11.00">SourceCodeController</text>
</g>
<!-- \\SourceCode\\Controller\\SourceCodeController&#45;&gt;\\Application\\Controller\\RestfulController -->
<g id="edge19" class="edge"><title>\\SourceCode\\Controller\\SourceCodeController&#45;&gt;\\Application\\Controller\\RestfulController</title>
<path fill="none" stroke="black" d="M836.339,-2187.85C817.057,-2183.97 798.209,-2176.07 785.541,-2161 696.172,-2054.69 825.343,-1019.6 737.541,-912 728.527,-900.953 715.798,-893.995 702.178,-889.697"/>
<polygon fill="none" stroke="black" points="702.708,-886.216 692.143,-887.018 700.902,-892.979 702.708,-886.216"/>
</g>
<!-- \\SourceCode\\Controller\\ProblemController -->
<g id="node18" class="node"><title>\\SourceCode\\Controller\\ProblemController</title>
<polygon fill="none" stroke="black" points="978.041,-2152 847.041,-2152 847.041,-2116 978.041,-2116 978.041,-2152"/>
<text text-anchor="middle" x="912.541" y="-2131.2" font-family="Courier,monospace" font-size="11.00">ProblemController</text>
</g>
<!-- \\SourceCode\\Controller\\ProblemController&#45;&gt;\\Application\\Controller\\RestfulController -->
<g id="edge20" class="edge"><title>\\SourceCode\\Controller\\ProblemController&#45;&gt;\\Application\\Controller\\RestfulController</title>
<path fill="none" stroke="black" d="M846.881,-2135.57C824.133,-2132.59 800.528,-2124.8 785.541,-2107 699.942,-2005.36 821.641,-1014.89 737.541,-912 728.517,-900.961 715.784,-894.006 702.163,-889.71"/>
<polygon fill="none" stroke="black" points="702.693,-886.228 692.128,-887.03 700.887,-892.991 702.693,-886.228"/>
</g>
<!-- \\SourceCode\\Controller\\LanguageController -->
<g id="node19" class="node"><title>\\SourceCode\\Controller\\LanguageController</title>
<polygon fill="none" stroke="black" points="981.541,-2098 843.541,-2098 843.541,-2062 981.541,-2062 981.541,-2098"/>
<text text-anchor="middle" x="912.541" y="-2077.2" font-family="Courier,monospace" font-size="11.00">LanguageController</text>
</g>
<!-- \\SourceCode\\Controller\\LanguageController&#45;&gt;\\Application\\Controller\\RestfulController -->
<g id="edge21" class="edge"><title>\\SourceCode\\Controller\\LanguageController&#45;&gt;\\Application\\Controller\\RestfulController</title>
<path fill="none" stroke="black" d="M843.478,-2079.37C821.757,-2075.55 799.704,-2067.17 785.541,-2050 705.021,-1952.36 817.735,-1009.91 737.541,-912 728.506,-900.97 715.768,-894.019 702.146,-889.724"/>
<polygon fill="none" stroke="black" points="702.675,-886.242 692.111,-887.044 700.87,-893.005 702.675,-886.242"/>
</g>
<!-- \\SourceCode\\Service\\GraphStructure -->
<g id="node20" class="node"><title>\\SourceCode\\Service\\GraphStructure</title>
<polygon fill="none" stroke="black" points="968.041,-2018 857.041,-2018 857.041,-1982 968.041,-1982 968.041,-2018"/>
<text text-anchor="middle" x="912.541" y="-1997.2" font-family="Courier,monospace" font-size="11.00">GraphStructure</text>
</g>
<!-- \\SourceCode\\Service\\DataCollect -->
<g id="node21" class="node"><title>\\SourceCode\\Service\\DataCollect</title>
<polygon fill="none" stroke="black" points="958.041,-1964 867.041,-1964 867.041,-1928 958.041,-1928 958.041,-1964"/>
<text text-anchor="middle" x="912.541" y="-1943.2" font-family="Courier,monospace" font-size="11.00">DataCollect</text>
</g>
<!-- \\SourceCode\\Service\\Language -->
<g id="node22" class="node"><title>\\SourceCode\\Service\\Language</title>
<polygon fill="none" stroke="black" points="948.041,-1910 877.041,-1910 877.041,-1874 948.041,-1874 948.041,-1910"/>
<text text-anchor="middle" x="912.541" y="-1889.2" font-family="Courier,monospace" font-size="11.00">Language</text>
</g>
<!-- \\SourceCode\\Service\\Rank -->
<g id="node23" class="node"><title>\\SourceCode\\Service\\Rank</title>
<polygon fill="none" stroke="black" points="939.541,-1856 885.541,-1856 885.541,-1820 939.541,-1820 939.541,-1856"/>
<text text-anchor="middle" x="912.541" y="-1835.2" font-family="Courier,monospace" font-size="11.00">Rank</text>
</g>
<!-- \\SourceCode\\Service\\AnalysisStructure -->
<g id="node24" class="node"><title>\\SourceCode\\Service\\AnalysisStructure</title>
<polygon fill="none" stroke="black" points="978.041,-1802 847.041,-1802 847.041,-1766 978.041,-1766 978.041,-1802"/>
<text text-anchor="middle" x="912.541" y="-1781.2" font-family="Courier,monospace" font-size="11.00">AnalysisStructure</text>
</g>
<!-- \\SourceCode\\Model\\Entity\\CategoryProblem -->
<g id="node25" class="node"><title>\\SourceCode\\Model\\Entity\\CategoryProblem</title>
<polygon fill="none" stroke="black" points="971.541,-1694 853.541,-1694 853.541,-1658 971.541,-1658 971.541,-1694"/>
<text text-anchor="middle" x="912.541" y="-1673.2" font-family="Courier,monospace" font-size="11.00">CategoryProblem</text>
</g>
<!-- \\SourceCode\\Model\\Entity\\CategoryProblem&#45;&gt;\\Application\\Model\\Entity\\Entity -->
<g id="edge25" class="edge"><title>\\SourceCode\\Model\\Entity\\CategoryProblem&#45;&gt;\\Application\\Model\\Entity\\Entity</title>
<path fill="none" stroke="black" d="M853.376,-1677.37C829.168,-1674.8 802.751,-1667.36 785.541,-1649 685.399,-1542.14 804.567,-1453.21 737.541,-1323 720.3,-1289.5 688.314,-1260.56 663.236,-1241.43"/>
<polygon fill="none" stroke="black" points="665.14,-1238.48 655.028,-1235.32 660.962,-1244.1 665.14,-1238.48"/>
</g>
<!-- \\SourceCode\\Model\\Entity\\AnalysisResults -->
<g id="node26" class="node"><title>\\SourceCode\\Model\\Entity\\AnalysisResults</title>
<polygon fill="none" stroke="black" points="971.541,-1640 853.541,-1640 853.541,-1604 971.541,-1604 971.541,-1640"/>
<text text-anchor="middle" x="912.541" y="-1619.2" font-family="Courier,monospace" font-size="11.00">AnalysisResults</text>
</g>
<!-- \\SourceCode\\Model\\Entity\\AnalysisResults&#45;&gt;\\Application\\Model\\Entity\\Entity -->
<g id="edge26" class="edge"><title>\\SourceCode\\Model\\Entity\\AnalysisResults&#45;&gt;\\Application\\Model\\Entity\\Entity</title>
<path fill="none" stroke="black" d="M853.299,-1623.1C829.224,-1620.46 802.933,-1613.04 785.541,-1595 700.334,-1506.63 795.271,-1431.33 737.541,-1323 719.712,-1289.54 687.485,-1260.42 662.481,-1241.21"/>
<polygon fill="none" stroke="black" points="664.41,-1238.28 654.309,-1235.08 660.211,-1243.88 664.41,-1238.28"/>
</g>
<!-- \\SourceCode\\Model\\Entity\\BypassCommand -->
<g id="node27" class="node"><title>\\SourceCode\\Model\\Entity\\BypassCommand</title>
<polygon fill="none" stroke="black" points="964.541,-1586 860.541,-1586 860.541,-1550 964.541,-1550 964.541,-1586"/>
<text text-anchor="middle" x="912.541" y="-1565.2" font-family="Courier,monospace" font-size="11.00">BypassCommand</text>
</g>
<!-- \\SourceCode\\Model\\Entity\\BypassCommand&#45;&gt;\\Application\\Model\\Entity\\Entity -->
<g id="edge27" class="edge"><title>\\SourceCode\\Model\\Entity\\BypassCommand&#45;&gt;\\Application\\Model\\Entity\\Entity</title>
<path fill="none" stroke="black" d="M860.337,-1569.4C834.66,-1567.34 804.974,-1560.32 785.541,-1541 715.192,-1471.05 786.028,-1409.55 737.541,-1323 719.013,-1289.93 686.867,-1260.76 662.071,-1241.43"/>
<polygon fill="none" stroke="black" points="664.05,-1238.54 653.974,-1235.27 659.808,-1244.11 664.05,-1238.54"/>
</g>
<!-- \\SourceCode\\Model\\Entity\\DataType -->
<g id="node28" class="node"><title>\\SourceCode\\Model\\Entity\\DataType</title>
<polygon fill="none" stroke="black" points="948.041,-1532 877.041,-1532 877.041,-1496 948.041,-1496 948.041,-1532"/>
<text text-anchor="middle" x="912.541" y="-1511.2" font-family="Courier,monospace" font-size="11.00">DataType</text>
</g>
<!-- \\SourceCode\\Model\\Entity\\DataType&#45;&gt;\\Application\\Model\\Entity\\Entity -->
<g id="edge28" class="edge"><title>\\SourceCode\\Model\\Entity\\DataType&#45;&gt;\\Application\\Model\\Entity\\Entity</title>
<path fill="none" stroke="black" d="M876.987,-1515.69C848.9,-1515.15 810.045,-1509.76 785.541,-1487 729.898,-1435.31 776.89,-1387.96 737.541,-1323 717.775,-1290.37 685.479,-1260.96 660.957,-1241.45"/>
<polygon fill="none" stroke="black" points="663.007,-1238.61 652.969,-1235.22 658.702,-1244.13 663.007,-1238.61"/>
</g>
<!-- \\SourceCode\\Model\\Entity\\Language -->
<g id="node29" class="node"><title>\\SourceCode\\Model\\Entity\\Language</title>
<polygon fill="none" stroke="black" points="948.041,-1478 877.041,-1478 877.041,-1442 948.041,-1442 948.041,-1478"/>
<text text-anchor="middle" x="912.541" y="-1457.2" font-family="Courier,monospace" font-size="11.00">Language</text>
</g>
<!-- \\SourceCode\\Model\\Entity\\Language&#45;&gt;\\Application\\Model\\Entity\\Entity -->
<g id="edge29" class="edge"><title>\\SourceCode\\Model\\Entity\\Language&#45;&gt;\\Application\\Model\\Entity\\Entity</title>
<path fill="none" stroke="black" d="M876.875,-1460.83C849.284,-1459.7 811.177,-1453.95 785.541,-1433 744.24,-1399.24 768.011,-1366.78 737.541,-1323 715.477,-1291.3 682.9,-1261.38 658.896,-1241.46"/>
<polygon fill="none" stroke="black" points="661.07,-1238.72 651.111,-1235.11 656.642,-1244.14 661.07,-1238.72"/>
</g>
<!-- \\SourceCode\\Model\\Entity\\Rank -->
<g id="node30" class="node"><title>\\SourceCode\\Model\\Entity\\Rank</title>
<polygon fill="none" stroke="black" points="939.541,-1424 885.541,-1424 885.541,-1388 939.541,-1388 939.541,-1424"/>
<text text-anchor="middle" x="912.541" y="-1403.2" font-family="Courier,monospace" font-size="11.00">Rank</text>
</g>
<!-- \\SourceCode\\Model\\Entity\\Rank&#45;&gt;\\Application\\Model\\Entity\\Entity -->
<g id="edge30" class="edge"><title>\\SourceCode\\Model\\Entity\\Rank&#45;&gt;\\Application\\Model\\Entity\\Entity</title>
<path fill="none" stroke="black" d="M885.153,-1405.21C858.352,-1403.35 816.496,-1397.41 785.541,-1379 757.368,-1362.24 760.043,-1346.84 737.541,-1323 710.49,-1294.34 677.763,-1263.27 655.047,-1242.22"/>
<polygon fill="none" stroke="black" points="657.178,-1239.42 647.455,-1235.21 652.43,-1244.57 657.178,-1239.42"/>
</g>
<!-- \\SourceCode\\Model\\Entity\\LogicalConnective -->
<g id="node31" class="node"><title>\\SourceCode\\Model\\Entity\\LogicalConnective</title>
<polygon fill="none" stroke="black" points="978.041,-1370 847.041,-1370 847.041,-1334 978.041,-1334 978.041,-1370"/>
<text text-anchor="middle" x="912.541" y="-1349.2" font-family="Courier,monospace" font-size="11.00">LogicalConnective</text>
</g>
<!-- \\SourceCode\\Model\\Entity\\LogicalConnective&#45;&gt;\\Application\\Model\\Entity\\Entity -->
<g id="edge31" class="edge"><title>\\SourceCode\\Model\\Entity\\LogicalConnective&#45;&gt;\\Application\\Model\\Entity\\Entity</title>
<path fill="none" stroke="black" d="M846.925,-1343.14C826.754,-1339.07 804.765,-1333.24 785.541,-1325 736.385,-1303.92 686.559,-1266.68 656.317,-1241.92"/>
<polygon fill="none" stroke="black" points="658.255,-1238.98 648.324,-1235.29 653.787,-1244.37 658.255,-1238.98"/>
</g>
<!-- \\SourceCode\\Model\\Entity\\GraphElement -->
<g id="node32" class="node"><title>\\SourceCode\\Model\\Entity\\GraphElement</title>
<polygon fill="none" stroke="black" points="961.541,-1316 863.541,-1316 863.541,-1280 961.541,-1280 961.541,-1316"/>
<text text-anchor="middle" x="912.541" y="-1295.2" font-family="Courier,monospace" font-size="11.00">GraphElement</text>
</g>
<!-- \\SourceCode\\Model\\Entity\\GraphElement&#45;&gt;\\Application\\Model\\Entity\\Entity -->
<g id="edge32" class="edge"><title>\\SourceCode\\Model\\Entity\\GraphElement&#45;&gt;\\Application\\Model\\Entity\\Entity</title>
<path fill="none" stroke="black" d="M863.352,-1289.06C839.741,-1284.33 810.983,-1278.04 785.541,-1271 749.211,-1260.94 709.02,-1247.18 678.247,-1236.07"/>
<polygon fill="none" stroke="black" points="679.197,-1232.69 668.603,-1232.56 676.805,-1239.27 679.197,-1232.69"/>
</g>
<!-- \\SourceCode\\Model\\Entity\\SpecialCharacter -->
<g id="node33" class="node"><title>\\SourceCode\\Model\\Entity\\SpecialCharacter</title>
<polygon fill="none" stroke="black" points="975.041,-1262 850.041,-1262 850.041,-1226 975.041,-1226 975.041,-1262"/>
<text text-anchor="middle" x="912.541" y="-1241.2" font-family="Courier,monospace" font-size="11.00">SpecialCharacter</text>
</g>
<!-- \\SourceCode\\Model\\Entity\\SpecialCharacter&#45;&gt;\\Application\\Model\\Entity\\Entity -->
<g id="edge33" class="edge"><title>\\SourceCode\\Model\\Entity\\SpecialCharacter&#45;&gt;\\Application\\Model\\Entity\\Entity</title>
<path fill="none" stroke="black" d="M849.887,-1238.14C798.794,-1233.29 727.012,-1226.47 678.937,-1221.9"/>
<polygon fill="none" stroke="black" points="679.041,-1218.39 668.755,-1220.93 678.379,-1225.36 679.041,-1218.39"/>
</g>
<!-- \\SourceCode\\Model\\Entity\\Problem -->
<g id="node34" class="node"><title>\\SourceCode\\Model\\Entity\\Problem</title>
<polygon fill="none" stroke="black" points="944.541,-1208 880.541,-1208 880.541,-1172 944.541,-1172 944.541,-1208"/>
<text text-anchor="middle" x="912.541" y="-1187.2" font-family="Courier,monospace" font-size="11.00">Problem</text>
</g>
<!-- \\SourceCode\\Model\\Entity\\Problem&#45;&gt;\\Application\\Model\\Entity\\Entity -->
<g id="edge34" class="edge"><title>\\SourceCode\\Model\\Entity\\Problem&#45;&gt;\\Application\\Model\\Entity\\Entity</title>
<path fill="none" stroke="black" d="M880.32,-1192.97C831.769,-1197.58 737.66,-1206.52 678.933,-1212.1"/>
<polygon fill="none" stroke="black" points="678.379,-1208.64 668.755,-1213.07 679.041,-1215.61 678.379,-1208.64"/>
</g>
<!-- \\SourceCode\\Model\\Entity\\SourceCode -->
<g id="node35" class="node"><title>\\SourceCode\\Model\\Entity\\SourceCode</title>
<polygon fill="none" stroke="black" points="954.541,-1154 870.541,-1154 870.541,-1118 954.541,-1118 954.541,-1154"/>
<text text-anchor="middle" x="912.541" y="-1133.2" font-family="Courier,monospace" font-size="11.00">SourceCode</text>
</g>
<!-- \\SourceCode\\Model\\Entity\\SourceCode&#45;&gt;\\Application\\Model\\Entity\\Entity -->
<g id="edge35" class="edge"><title>\\SourceCode\\Model\\Entity\\SourceCode&#45;&gt;\\Application\\Model\\Entity\\Entity</title>
<path fill="none" stroke="black" d="M870.361,-1141.61C845.302,-1145.8 812.951,-1152.63 785.541,-1163 762.648,-1171.66 760.304,-1181 737.541,-1190 718.762,-1197.42 697.35,-1203.23 678.431,-1207.53"/>
<polygon fill="none" stroke="black" points="677.523,-1204.14 668.501,-1209.7 679.018,-1210.98 677.523,-1204.14"/>
</g>
<!-- \\SourceCode\\Model\\Validation\\SourceCodeValidator -->
<g id="node36" class="node"><title>\\SourceCode\\Model\\Validation\\SourceCodeValidator</title>
<polygon fill="none" stroke="black" points="985.041,-1074 840.041,-1074 840.041,-1038 985.041,-1038 985.041,-1074"/>
<text text-anchor="middle" x="912.541" y="-1053.2" font-family="Courier,monospace" font-size="11.00">SourceCodeValidator</text>
</g>
<!-- \\SourceCode\\Model\\Validation\\SourceCodeValidator&#45;&gt;\\Zend\\InputFilter\\InputFilter -->
<g id="edge36" class="edge"><title>\\SourceCode\\Model\\Validation\\SourceCodeValidator&#45;&gt;\\Zend\\InputFilter\\InputFilter</title>
<path fill="none" stroke="black" d="M839.758,-1056.36C819.355,-1052.73 799.036,-1044.84 785.541,-1029 652.033,-872.339 859.99,-269.448 737.541,-104 730.567,-94.5777 721.153,-87.3705 710.75,-81.8586"/>
<polygon fill="none" stroke="black" points="711.927,-78.5439 701.39,-77.4382 708.938,-84.8735 711.927,-78.5439"/>
</g>
<!-- \\SourceCode\\Model\\Validation\\RankValidator -->
<g id="node37" class="node"><title>\\SourceCode\\Model\\Validation\\RankValidator</title>
<polygon fill="none" stroke="black" points="964.541,-1020 860.541,-1020 860.541,-984 964.541,-984 964.541,-1020"/>
<text text-anchor="middle" x="912.541" y="-999.2" font-family="Courier,monospace" font-size="11.00">RankValidator</text>
</g>
<!-- \\SourceCode\\Model\\Validation\\RankValidator&#45;&gt;\\Zend\\InputFilter\\InputFilter -->
<g id="edge37" class="edge"><title>\\SourceCode\\Model\\Validation\\RankValidator&#45;&gt;\\Zend\\InputFilter\\InputFilter</title>
<path fill="none" stroke="black" d="M860.492,-1006.91C834.205,-1006.44 803.902,-1000.67 785.541,-980 656.062,-834.247 853.748,-260.54 737.541,-104 730.436,-94.4289 720.813,-87.1437 710.198,-81.5993"/>
<polygon fill="none" stroke="black" points="711.622,-78.4017 701.081,-77.3395 708.659,-84.7436 711.622,-78.4017"/>
</g>
<!-- \\SourceCode\\Model\\CodeBypassCommand -->
<g id="node38" class="node"><title>\\SourceCode\\Model\\CodeBypassCommand</title>
<polygon fill="none" stroke="black" points="978.041,-966 847.041,-966 847.041,-930 978.041,-930 978.041,-966"/>
<text text-anchor="middle" x="912.541" y="-945.2" font-family="Courier,monospace" font-size="11.00">CodeBypassCommand</text>
</g>
<!-- \\SourceCode\\Model\\Vertex -->
<g id="node39" class="node"><title>\\SourceCode\\Model\\Vertex</title>
<polygon fill="none" stroke="black" points="941.041,-912 884.041,-912 884.041,-876 941.041,-876 941.041,-912"/>
<text text-anchor="middle" x="912.541" y="-891.2" font-family="Courier,monospace" font-size="11.00">Vertex</text>
</g>
<!-- \\SourceCode\\Module -->
<g id="node40" class="node"><title>\\SourceCode\\Module</title>
<polygon fill="none" stroke="black" points="941.041,-858 884.041,-858 884.041,-822 941.041,-822 941.041,-858"/>
<text text-anchor="middle" x="912.541" y="-837.2" font-family="Courier,monospace" font-size="11.00">Module</text>
</g>
<!-- \\SourceCode\\Module&#45;&gt;\\Zend\\ModuleManager\\Feature\\ConfigProviderInterface -->
<g id="edge22" class="edge"><title>\\SourceCode\\Module&#45;&gt;\\Zend\\ModuleManager\\Feature\\ConfigProviderInterface</title>
<path fill="none" stroke="black" stroke-dasharray="1,5" d="M625.401,-118C606.153,-103.267 489.634,-106.837 386.841,-113.207"/>
<polygon fill="none" stroke="black" points="386.382,-109.729 376.622,-113.852 386.823,-116.715 386.382,-109.729"/>
</g>
<!-- \\SourceCode\\Module&#45;&gt;\\Zend\\ModuleManager\\Feature\\ServiceProviderInterface -->
<g id="edge23" class="edge"><title>\\SourceCode\\Module&#45;&gt;\\Zend\\ModuleManager\\Feature\\ServiceProviderInterface</title>
<path fill="none" stroke="black" stroke-dasharray="1,5" d="M625.401,-118C606.844,-103.796 499.134,-91.949 399.77,-83.8364"/>
<polygon fill="none" stroke="black" points="399.815,-80.3288 389.567,-83.0138 399.253,-87.3061 399.815,-80.3288"/>
</g>
<!-- \\SourceCode\\Module&#45;&gt;\\Zend\\ModuleManager\\Feature\\ControllerProviderInterface -->
<g id="edge24" class="edge"><title>\\SourceCode\\Module&#45;&gt;\\Zend\\ModuleManager\\Feature\\ControllerProviderInterface</title>
<path fill="none" stroke="black" stroke-dasharray="1,5" d="M884.029,-828.477C855.079,-814.922 810.345,-789.656 785.541,-754 619.206,-514.891 858.694,-295.042 627.401,-118"/>
<path fill="none" stroke="black" stroke-dasharray="1,5" d="M625.401,-118C585.379,-87.3654 561.595,-110.834 515.261,-91 480.351,-76.0565 478.995,-57.8477 443.261,-45 428.813,-39.8055 413.527,-35.5735 398.013,-32.1303"/>
<polygon fill="none" stroke="black" points="398.298,-28.6136 387.791,-29.9792 396.856,-35.4636 398.298,-28.6136"/>
</g>
</g>
</svg>
