<?xml version="1.0" encoding="UTF-8" standalone="no"?>
<!DOCTYPE svg PUBLIC "-//W3C//DTD SVG 1.1//EN"
 "http://www.w3.org/Graphics/SVG/1.1/DTD/svg11.dtd">
<!-- Generated by graphviz version 2.38.0 (20140413.2041)
 -->
<!-- Title: G Pages: 1 -->
<svg width="728pt" height="384pt"
 viewBox="0.00 0.00 727.56 384.00" xmlns="http://www.w3.org/2000/svg" xmlns:xlink="http://www.w3.org/1999/xlink">
<g id="graph0" class="graph" transform="scale(1 1) rotate(0) translate(4 380)">
<title>G</title>
<polygon fill="white" stroke="none" points="-4,4 -4,-380 723.558,-380 723.558,4 -4,4"/>
<g id="clust1" class="cluster"><title>cluster_Global</title>
<path fill="none" stroke="gray" d="M530.558,-8C530.558,-8 699.558,-8 699.558,-8 705.558,-8 711.558,-14 711.558,-20 711.558,-20 711.558,-356 711.558,-356 711.558,-362 705.558,-368 699.558,-368 699.558,-368 530.558,-368 530.558,-368 524.558,-368 518.558,-362 518.558,-356 518.558,-356 518.558,-20 518.558,-20 518.558,-14 524.558,-8 530.558,-8"/>
<text text-anchor="middle" x="615.058" y="-355.2" font-family="Times,serif" font-size="11.00" fill="gray">Global</text>
</g>
<g id="clust2" class="cluster"><title>cluster_\Application</title>
<path fill="none" stroke="gray" d="M552.058,-132C552.058,-132 678.058,-132 678.058,-132 684.058,-132 690.058,-138 690.058,-144 690.058,-144 690.058,-328 690.058,-328 690.058,-334 684.058,-340 678.058,-340 678.058,-340 552.058,-340 552.058,-340 546.058,-340 540.058,-334 540.058,-328 540.058,-328 540.058,-144 540.058,-144 540.058,-138 546.058,-132 552.058,-132"/>
<text text-anchor="middle" x="615.058" y="-327.2" font-family="Times,serif" font-size="11.00" fill="gray">Application</text>
</g>
<g id="clust3" class="cluster"><title>cluster_\Application\Controller</title>
<path fill="none" stroke="gray" d="M560.058,-186C560.058,-186 670.058,-186 670.058,-186 676.058,-186 682.058,-192 682.058,-198 682.058,-198 682.058,-300 682.058,-300 682.058,-306 676.058,-312 670.058,-312 670.058,-312 560.058,-312 560.058,-312 554.058,-312 548.058,-306 548.058,-300 548.058,-300 548.058,-198 548.058,-198 548.058,-192 554.058,-186 560.058,-186"/>
<text text-anchor="middle" x="615.058" y="-299.2" font-family="Times,serif" font-size="11.00" fill="gray">Controller</text>
</g>
<g id="clust4" class="cluster"><title>cluster_\ApplicationTest</title>
<path fill="none" stroke="gray" d="M538.558,-16C538.558,-16 691.558,-16 691.558,-16 697.558,-16 703.558,-22 703.558,-28 703.558,-28 703.558,-112 703.558,-112 703.558,-118 697.558,-124 691.558,-124 691.558,-124 538.558,-124 538.558,-124 532.558,-124 526.558,-118 526.558,-112 526.558,-112 526.558,-28 526.558,-28 526.558,-22 532.558,-16 538.558,-16"/>
<text text-anchor="middle" x="615.058" y="-111.2" font-family="Times,serif" font-size="11.00" fill="gray">ApplicationTest</text>
</g>
<g id="clust5" class="cluster"><title>cluster_\ApplicationTest\Controller</title>
<path fill="none" stroke="gray" d="M546.558,-24C546.558,-24 683.558,-24 683.558,-24 689.558,-24 695.558,-30 695.558,-36 695.558,-36 695.558,-84 695.558,-84 695.558,-90 689.558,-96 683.558,-96 683.558,-96 546.558,-96 546.558,-96 540.558,-96 534.558,-90 534.558,-84 534.558,-84 534.558,-36 534.558,-36 534.558,-30 540.558,-24 546.558,-24"/>
<text text-anchor="middle" x="615.058" y="-83.2" font-family="Times,serif" font-size="11.00" fill="gray">Controller</text>
</g>
<!-- \\Application\\Controller\\IndexController -->
<g id="node1" class="node"><title>\\Application\\Controller\\IndexController</title>
<polygon fill="none" stroke="black" points="674.058,-284 556.058,-284 556.058,-248 674.058,-248 674.058,-284"/>
<text text-anchor="middle" x="615.058" y="-263.2" font-family="Courier,monospace" font-size="11.00">IndexController</text>
</g>
<!-- \\Zend\\Mvc\\Controller\\AbstractActionController -->
<g id="node5" class="node"><title>\\Zend\\Mvc\\Controller\\AbstractActionController</title>
<ellipse fill="none" stroke="black" cx="235.279" cy="-266" rx="180.868" ry="18"/>
<text text-anchor="middle" x="235.279" y="-262.3" font-family="Times,serif" font-size="14.00" fill="gray">\Zend\Mvc\Controller\AbstractActionController</text>
</g>
<!-- \\Application\\Controller\\IndexController&#45;&gt;\\Zend\\Mvc\\Controller\\AbstractActionController -->
<g id="edge1" class="edge"><title>\\Application\\Controller\\IndexController&#45;&gt;\\Zend\\Mvc\\Controller\\AbstractActionController</title>
<path fill="none" stroke="black" d="M555.858,-266C520.594,-266 473.41,-266 426.144,-266"/>
<polygon fill="none" stroke="black" points="426.062,-262.5 416.061,-266 426.061,-269.5 426.062,-262.5"/>
</g>
<!-- \\Application\\Controller\\AuthController -->
<g id="node2" class="node"><title>\\Application\\Controller\\AuthController</title>
<polygon fill="none" stroke="black" points="670.558,-230 559.558,-230 559.558,-194 670.558,-194 670.558,-230"/>
<text text-anchor="middle" x="615.058" y="-209.2" font-family="Courier,monospace" font-size="11.00">AuthController</text>
</g>
<!-- \\Zend\\Mvc\\Controller\\AbstractRestfulController -->
<g id="node6" class="node"><title>\\Zend\\Mvc\\Controller\\AbstractRestfulController</title>
<ellipse fill="none" stroke="black" cx="235.279" cy="-212" rx="182.768" ry="18"/>
<text text-anchor="middle" x="235.279" y="-208.3" font-family="Times,serif" font-size="14.00" fill="gray">\Zend\Mvc\Controller\AbstractRestfulController</text>
</g>
<!-- \\Application\\Controller\\AuthController&#45;&gt;\\Zend\\Mvc\\Controller\\AbstractRestfulController -->
<g id="edge2" class="edge"><title>\\Application\\Controller\\AuthController&#45;&gt;\\Zend\\Mvc\\Controller\\AbstractRestfulController</title>
<path fill="none" stroke="black" d="M559.529,-212C524.429,-212 476.494,-212 428.288,-212"/>
<polygon fill="none" stroke="black" points="428.002,-208.5 418.002,-212 428.002,-215.5 428.002,-208.5"/>
</g>
<!-- \\Application\\Module -->
<g id="node3" class="node"><title>\\Application\\Module</title>
<polygon fill="none" stroke="black" points="643.558,-176 586.558,-176 586.558,-140 643.558,-140 643.558,-176"/>
<text text-anchor="middle" x="615.058" y="-155.2" font-family="Courier,monospace" font-size="11.00">Module</text>
</g>
<!-- \\ApplicationTest\\Controller\\IndexControllerTest -->
<g id="node4" class="node"><title>\\ApplicationTest\\Controller\\IndexControllerTest</title>
<polygon fill="none" stroke="black" points="687.558,-68 542.558,-68 542.558,-32 687.558,-32 687.558,-68"/>
<text text-anchor="middle" x="615.058" y="-47.2" font-family="Courier,monospace" font-size="11.00">IndexControllerTest</text>
</g>
<!-- \\Zend\\Test\\PHPUnit\\Controller\\AbstractHttpControllerTestCase -->
<g id="node7" class="node"><title>\\Zend\\Test\\PHPUnit\\Controller\\AbstractHttpControllerTestCase</title>
<ellipse fill="none" stroke="black" cx="235.279" cy="-50" rx="235.058" ry="18"/>
<text text-anchor="middle" x="235.279" y="-46.3" font-family="Times,serif" font-size="14.00" fill="gray">\ZendTest\PHPUnit\Controller\AbstractHttpControllerTestCase</text>
</g>
<!-- \\ApplicationTest\\Controller\\IndexControllerTest&#45;&gt;\\Zend\\Test\\PHPUnit\\Controller\\AbstractHttpControllerTestCase -->
<g id="edge3" class="edge"><title>\\ApplicationTest\\Controller\\IndexControllerTest&#45;&gt;\\Zend\\Test\\PHPUnit\\Controller\\AbstractHttpControllerTestCase</title>
<path fill="none" stroke="black" d="M542.557,-50C524.099,-50 503.165,-50 481.112,-50"/>
<polygon fill="none" stroke="black" points="480.905,-46.5001 470.905,-50 480.905,-53.5001 480.905,-46.5001"/>
</g>
</g>
</svg>
