<?xml version="1.0" encoding="UTF-8" standalone="no"?>
<!DOCTYPE svg PUBLIC "-//W3C//DTD SVG 1.1//EN"
 "http://www.w3.org/Graphics/SVG/1.1/DTD/svg11.dtd">
<!-- Generated by graphviz version 2.38.0 (20140413.2041)
 -->
<!-- Title: G Pages: 1 -->
<svg width="1312pt" height="2244pt"
 viewBox="0.00 0.00 1311.82 2244.00" xmlns="http://www.w3.org/2000/svg" xmlns:xlink="http://www.w3.org/1999/xlink">
<g id="graph0" class="graph" transform="scale(1 1) rotate(0) translate(4 2240)">
<title>G</title>
<polygon fill="white" stroke="none" points="-4,4 -4,-2240 1307.82,-2240 1307.82,4 -4,4"/>
<g id="clust1" class="cluster"><title>cluster_Global</title>
<path fill="none" stroke="gray" d="M665.04,-190C665.04,-190 1283.82,-190 1283.82,-190 1289.82,-190 1295.82,-196 1295.82,-202 1295.82,-202 1295.82,-2216 1295.82,-2216 1295.82,-2222 1289.82,-2228 1283.82,-2228 1283.82,-2228 665.04,-2228 665.04,-2228 659.04,-2228 653.04,-2222 653.04,-2216 653.04,-2216 653.04,-202 653.04,-202 653.04,-196 659.04,-190 665.04,-190"/>
<text text-anchor="middle" x="974.429" y="-2215.2" font-family="Times,serif" font-size="11.00" fill="gray">Global</text>
</g>
<g id="clust2" class="cluster"><title>cluster_\SourceCode</title>
<path fill="none" stroke="gray" d="M1056.32,-996C1056.32,-996 1265.32,-996 1265.32,-996 1271.32,-996 1277.32,-1002 1277.32,-1008 1277.32,-1008 1277.32,-2188 1277.32,-2188 1277.32,-2194 1271.32,-2200 1265.32,-2200 1265.32,-2200 1056.32,-2200 1056.32,-2200 1050.32,-2200 1044.32,-2194 1044.32,-2188 1044.32,-2188 1044.32,-1008 1044.32,-1008 1044.32,-1002 1050.32,-996 1056.32,-996"/>
<text text-anchor="middle" x="1160.82" y="-2187.2" font-family="Times,serif" font-size="11.00" fill="gray">SourceCode</text>
</g>
<g id="clust3" class="cluster"><title>cluster_\SourceCode\Entity</title>
<path fill="none" stroke="gray" d="M1099.32,-1668C1099.32,-1668 1222.32,-1668 1222.32,-1668 1228.32,-1668 1234.32,-1674 1234.32,-1680 1234.32,-1680 1234.32,-2160 1234.32,-2160 1234.32,-2166 1228.32,-2172 1222.32,-2172 1222.32,-2172 1099.32,-2172 1099.32,-2172 1093.32,-2172 1087.32,-2166 1087.32,-2160 1087.32,-2160 1087.32,-1680 1087.32,-1680 1087.32,-1674 1093.32,-1668 1099.32,-1668"/>
<text text-anchor="middle" x="1160.82" y="-2159.2" font-family="Times,serif" font-size="11.00" fill="gray">Entity</text>
</g>
<g id="clust4" class="cluster"><title>cluster_\SourceCode\Controller</title>
<path fill="none" stroke="gray" d="M1064.32,-1506C1064.32,-1506 1257.32,-1506 1257.32,-1506 1263.32,-1506 1269.32,-1512 1269.32,-1518 1269.32,-1518 1269.32,-1648 1269.32,-1648 1269.32,-1654 1263.32,-1660 1257.32,-1660 1257.32,-1660 1064.32,-1660 1064.32,-1660 1058.32,-1660 1052.32,-1654 1052.32,-1648 1052.32,-1648 1052.32,-1518 1052.32,-1518 1052.32,-1512 1058.32,-1506 1064.32,-1506"/>
<text text-anchor="middle" x="1160.82" y="-1647.2" font-family="Times,serif" font-size="11.00" fill="gray">Controller</text>
</g>
<g id="clust5" class="cluster"><title>cluster_\SourceCode\Controller\Factory</title>
<path fill="none" stroke="gray" d="M1072.32,-1560C1072.32,-1560 1249.32,-1560 1249.32,-1560 1255.32,-1560 1261.32,-1566 1261.32,-1572 1261.32,-1572 1261.32,-1620 1261.32,-1620 1261.32,-1626 1255.32,-1632 1249.32,-1632 1249.32,-1632 1072.32,-1632 1072.32,-1632 1066.32,-1632 1060.32,-1626 1060.32,-1620 1060.32,-1620 1060.32,-1572 1060.32,-1572 1060.32,-1566 1066.32,-1560 1072.32,-1560"/>
<text text-anchor="middle" x="1160.82" y="-1619.2" font-family="Times,serif" font-size="11.00" fill="gray">Factory</text>
</g>
<g id="clust6" class="cluster"><title>cluster_\SourceCode\Service</title>
<path fill="none" stroke="gray" d="M1099.32,-1318C1099.32,-1318 1222.32,-1318 1222.32,-1318 1228.32,-1318 1234.32,-1324 1234.32,-1330 1234.32,-1330 1234.32,-1486 1234.32,-1486 1234.32,-1492 1228.32,-1498 1222.32,-1498 1222.32,-1498 1099.32,-1498 1099.32,-1498 1093.32,-1498 1087.32,-1492 1087.32,-1486 1087.32,-1486 1087.32,-1330 1087.32,-1330 1087.32,-1324 1093.32,-1318 1099.32,-1318"/>
<text text-anchor="middle" x="1160.82" y="-1485.2" font-family="Times,serif" font-size="11.00" fill="gray">Service</text>
</g>
<g id="clust7" class="cluster"><title>cluster_\SourceCode\Model</title>
<path fill="none" stroke="gray" d="M1099.32,-1184C1099.32,-1184 1222.32,-1184 1222.32,-1184 1228.32,-1184 1234.32,-1190 1234.32,-1196 1234.32,-1196 1234.32,-1298 1234.32,-1298 1234.32,-1304 1228.32,-1310 1222.32,-1310 1222.32,-1310 1099.32,-1310 1099.32,-1310 1093.32,-1310 1087.32,-1304 1087.32,-1298 1087.32,-1298 1087.32,-1196 1087.32,-1196 1087.32,-1190 1093.32,-1184 1099.32,-1184"/>
<text text-anchor="middle" x="1160.82" y="-1297.2" font-family="Times,serif" font-size="11.00" fill="gray">Model</text>
</g>
<g id="clust8" class="cluster"><title>cluster_\SourceCode\Validation</title>
<path fill="none" stroke="gray" d="M1102.32,-1004C1102.32,-1004 1219.32,-1004 1219.32,-1004 1225.32,-1004 1231.32,-1010 1231.32,-1016 1231.32,-1016 1231.32,-1118 1231.32,-1118 1231.32,-1124 1225.32,-1130 1219.32,-1130 1219.32,-1130 1102.32,-1130 1102.32,-1130 1096.32,-1130 1090.32,-1124 1090.32,-1118 1090.32,-1118 1090.32,-1016 1090.32,-1016 1090.32,-1010 1096.32,-1004 1102.32,-1004"/>
<text text-anchor="middle" x="1160.82" y="-1117.2" font-family="Times,serif" font-size="11.00" fill="gray">Validation</text>
</g>
<g id="clust9" class="cluster"><title>cluster_\User</title>
<path fill="none" stroke="gray" d="M1045.82,-314C1045.82,-314 1275.82,-314 1275.82,-314 1281.82,-314 1287.82,-320 1287.82,-326 1287.82,-326 1287.82,-976 1287.82,-976 1287.82,-982 1281.82,-988 1275.82,-988 1275.82,-988 1045.82,-988 1045.82,-988 1039.82,-988 1033.82,-982 1033.82,-976 1033.82,-976 1033.82,-326 1033.82,-326 1033.82,-320 1039.82,-314 1045.82,-314"/>
<text text-anchor="middle" x="1160.82" y="-975.2" font-family="Times,serif" font-size="11.00" fill="gray">User</text>
</g>
<g id="clust10" class="cluster"><title>cluster_\User\Validation</title>
<path fill="none" stroke="gray" d="M1102.32,-322C1102.32,-322 1219.32,-322 1219.32,-322 1225.32,-322 1231.32,-328 1231.32,-334 1231.32,-334 1231.32,-436 1231.32,-436 1231.32,-442 1225.32,-448 1219.32,-448 1219.32,-448 1102.32,-448 1102.32,-448 1096.32,-448 1090.32,-442 1090.32,-436 1090.32,-436 1090.32,-334 1090.32,-334 1090.32,-328 1096.32,-322 1102.32,-322"/>
<text text-anchor="middle" x="1160.82" y="-435.2" font-family="Times,serif" font-size="11.00" fill="gray">Validation</text>
</g>
<g id="clust11" class="cluster"><title>cluster_\User\Controller</title>
<path fill="none" stroke="gray" d="M1077.82,-502C1077.82,-502 1243.82,-502 1243.82,-502 1249.82,-502 1255.82,-508 1255.82,-514 1255.82,-514 1255.82,-698 1255.82,-698 1255.82,-704 1249.82,-710 1243.82,-710 1243.82,-710 1077.82,-710 1077.82,-710 1071.82,-710 1065.82,-704 1065.82,-698 1065.82,-698 1065.82,-514 1065.82,-514 1065.82,-508 1071.82,-502 1077.82,-502"/>
<text text-anchor="middle" x="1160.82" y="-697.2" font-family="Times,serif" font-size="11.00" fill="gray">Controller</text>
</g>
<g id="clust12" class="cluster"><title>cluster_\User\Controller\Factory</title>
<path fill="none" stroke="gray" d="M1085.82,-610C1085.82,-610 1235.82,-610 1235.82,-610 1241.82,-610 1247.82,-616 1247.82,-622 1247.82,-622 1247.82,-670 1247.82,-670 1247.82,-676 1241.82,-682 1235.82,-682 1235.82,-682 1085.82,-682 1085.82,-682 1079.82,-682 1073.82,-676 1073.82,-670 1073.82,-670 1073.82,-622 1073.82,-622 1073.82,-616 1079.82,-610 1085.82,-610"/>
<text text-anchor="middle" x="1160.82" y="-669.2" font-family="Times,serif" font-size="11.00" fill="gray">Factory</text>
</g>
<g id="clust13" class="cluster"><title>cluster_\User\Entity</title>
<path fill="none" stroke="gray" d="M1132.82,-718C1132.82,-718 1188.82,-718 1188.82,-718 1194.82,-718 1200.82,-724 1200.82,-730 1200.82,-730 1200.82,-832 1200.82,-832 1200.82,-838 1194.82,-844 1188.82,-844 1188.82,-844 1132.82,-844 1132.82,-844 1126.82,-844 1120.82,-838 1120.82,-832 1120.82,-832 1120.82,-730 1120.82,-730 1120.82,-724 1126.82,-718 1132.82,-718"/>
<text text-anchor="middle" x="1160.82" y="-831.2" font-family="Times,serif" font-size="11.00" fill="gray">Entity</text>
</g>
<g id="clust14" class="cluster"><title>cluster_\User\Service</title>
<path fill="none" stroke="gray" d="M1053.82,-852C1053.82,-852 1267.82,-852 1267.82,-852 1273.82,-852 1279.82,-858 1279.82,-864 1279.82,-864 1279.82,-948 1279.82,-948 1279.82,-954 1273.82,-960 1267.82,-960 1267.82,-960 1053.82,-960 1053.82,-960 1047.82,-960 1041.82,-954 1041.82,-948 1041.82,-948 1041.82,-864 1041.82,-864 1041.82,-858 1047.82,-852 1053.82,-852"/>
<text text-anchor="middle" x="1160.82" y="-947.2" font-family="Times,serif" font-size="11.00" fill="gray">Service</text>
</g>
<g id="clust15" class="cluster"><title>cluster_\User\Service\Factory</title>
<path fill="none" stroke="gray" d="M1061.82,-860C1061.82,-860 1259.82,-860 1259.82,-860 1265.82,-860 1271.82,-866 1271.82,-872 1271.82,-872 1271.82,-920 1271.82,-920 1271.82,-926 1265.82,-932 1259.82,-932 1259.82,-932 1061.82,-932 1061.82,-932 1055.82,-932 1049.82,-926 1049.82,-920 1049.82,-920 1049.82,-872 1049.82,-872 1049.82,-866 1055.82,-860 1061.82,-860"/>
<text text-anchor="middle" x="1160.82" y="-919.2" font-family="Times,serif" font-size="11.00" fill="gray">Factory</text>
</g>
<g id="clust16" class="cluster"><title>cluster_\Application</title>
<path fill="none" stroke="gray" d="M673.04,-1138C673.04,-1138 828.04,-1138 828.04,-1138 834.04,-1138 840.04,-1144 840.04,-1150 840.04,-1150 840.04,-1442 840.04,-1442 840.04,-1448 834.04,-1454 828.04,-1454 828.04,-1454 673.04,-1454 673.04,-1454 667.04,-1454 661.04,-1448 661.04,-1442 661.04,-1442 661.04,-1150 661.04,-1150 661.04,-1144 667.04,-1138 673.04,-1138"/>
<text text-anchor="middle" x="750.54" y="-1441.2" font-family="Times,serif" font-size="11.00" fill="gray">Application</text>
</g>
<g id="clust17" class="cluster"><title>cluster_\Application\Entity</title>
<path fill="none" stroke="gray" d="M712.54,-1354C712.54,-1354 788.54,-1354 788.54,-1354 794.54,-1354 800.54,-1360 800.54,-1366 800.54,-1366 800.54,-1414 800.54,-1414 800.54,-1420 794.54,-1426 788.54,-1426 788.54,-1426 712.54,-1426 712.54,-1426 706.54,-1426 700.54,-1420 700.54,-1414 700.54,-1414 700.54,-1366 700.54,-1366 700.54,-1360 706.54,-1354 712.54,-1354"/>
<text text-anchor="middle" x="750.54" y="-1413.2" font-family="Times,serif" font-size="11.00" fill="gray">Entity</text>
</g>
<g id="clust18" class="cluster"><title>cluster_\Application\Controller</title>
<path fill="none" stroke="gray" d="M681.04,-1192C681.04,-1192 820.04,-1192 820.04,-1192 826.04,-1192 832.04,-1198 832.04,-1204 832.04,-1204 832.04,-1334 832.04,-1334 832.04,-1340 826.04,-1346 820.04,-1346 820.04,-1346 681.04,-1346 681.04,-1346 675.04,-1346 669.04,-1340 669.04,-1334 669.04,-1334 669.04,-1204 669.04,-1204 669.04,-1198 675.04,-1192 681.04,-1192"/>
<text text-anchor="middle" x="750.54" y="-1333.2" font-family="Times,serif" font-size="11.00" fill="gray">Controller</text>
</g>
<g id="clust19" class="cluster"><title>cluster_\Application\Controller\Factory</title>
<path fill="none" stroke="gray" d="M689.04,-1246C689.04,-1246 812.04,-1246 812.04,-1246 818.04,-1246 824.04,-1252 824.04,-1258 824.04,-1258 824.04,-1306 824.04,-1306 824.04,-1312 818.04,-1318 812.04,-1318 812.04,-1318 689.04,-1318 689.04,-1318 683.04,-1318 677.04,-1312 677.04,-1306 677.04,-1306 677.04,-1258 677.04,-1258 677.04,-1252 683.04,-1246 689.04,-1246"/>
<text text-anchor="middle" x="750.54" y="-1305.2" font-family="Times,serif" font-size="11.00" fill="gray">Factory</text>
</g>
<g id="clust20" class="cluster"><title>cluster_\ApplicationTest</title>
<path fill="none" stroke="gray" d="M1084.32,-198C1084.32,-198 1237.32,-198 1237.32,-198 1243.32,-198 1249.32,-204 1249.32,-210 1249.32,-210 1249.32,-294 1249.32,-294 1249.32,-300 1243.32,-306 1237.32,-306 1237.32,-306 1084.32,-306 1084.32,-306 1078.32,-306 1072.32,-300 1072.32,-294 1072.32,-294 1072.32,-210 1072.32,-210 1072.32,-204 1078.32,-198 1084.32,-198"/>
<text text-anchor="middle" x="1160.82" y="-293.2" font-family="Times,serif" font-size="11.00" fill="gray">ApplicationTest</text>
</g>
<g id="clust21" class="cluster"><title>cluster_\ApplicationTest\Controller</title>
<path fill="none" stroke="gray" d="M1092.32,-206C1092.32,-206 1229.32,-206 1229.32,-206 1235.32,-206 1241.32,-212 1241.32,-218 1241.32,-218 1241.32,-266 1241.32,-266 1241.32,-272 1235.32,-278 1229.32,-278 1229.32,-278 1092.32,-278 1092.32,-278 1086.32,-278 1080.32,-272 1080.32,-266 1080.32,-266 1080.32,-218 1080.32,-218 1080.32,-212 1086.32,-206 1092.32,-206"/>
<text text-anchor="middle" x="1160.82" y="-265.2" font-family="Times,serif" font-size="11.00" fill="gray">Controller</text>
</g>
<!-- \\SourceCode\\Entity\\BypassCommand -->
<g id="node1" class="node"><title>\\SourceCode\\Entity\\BypassCommand</title>
<polygon fill="none" stroke="black" points="1212.82,-1928 1108.82,-1928 1108.82,-1892 1212.82,-1892 1212.82,-1928"/>
<text text-anchor="middle" x="1160.82" y="-1907.2" font-family="Courier,monospace" font-size="11.00">BypassCommand</text>
</g>
<!-- \\Application\\Entity\\Entity -->
<g id="node29" class="node"><title>\\Application\\Entity\\Entity</title>
<polygon fill="none" stroke="black" points="792.54,-1398 708.54,-1398 708.54,-1362 792.54,-1362 792.54,-1398"/>
<text text-anchor="start" x="716.54" y="-1383.2" font-family="Courier,monospace" font-size="11.00">«abstract»</text>
<text text-anchor="start" x="730.04" y="-1371.2" font-family="Courier,monospace" font-size="11.00">Entity</text>
</g>
<!-- \\SourceCode\\Entity\\BypassCommand&#45;&gt;\\Application\\Entity\\Entity -->
<g id="edge1" class="edge"><title>\\SourceCode\\Entity\\BypassCommand&#45;&gt;\\Application\\Entity\\Entity</title>
<path fill="none" stroke="black" d="M1108.81,-1912.18C1082.7,-1910.43 1052.56,-1903.46 1033.82,-1883 916.754,-1755.19 1086.13,-1637.34 985.819,-1496 942.419,-1434.85 857.458,-1404.31 802.657,-1390.35"/>
<polygon fill="none" stroke="black" points="803.338,-1386.91 792.792,-1387.93 801.671,-1393.71 803.338,-1386.91"/>
</g>
<!-- \\SourceCode\\Entity\\Language -->
<g id="node2" class="node"><title>\\SourceCode\\Entity\\Language</title>
<polygon fill="none" stroke="black" points="1196.32,-1874 1125.32,-1874 1125.32,-1838 1196.32,-1838 1196.32,-1874"/>
<text text-anchor="middle" x="1160.82" y="-1853.2" font-family="Courier,monospace" font-size="11.00">Language</text>
</g>
<!-- \\SourceCode\\Entity\\Language&#45;&gt;\\Application\\Entity\\Entity -->
<g id="edge2" class="edge"><title>\\SourceCode\\Entity\\Language&#45;&gt;\\Application\\Entity\\Entity</title>
<path fill="none" stroke="black" d="M1125.26,-1858.56C1096.57,-1858.64 1056.88,-1853.68 1033.82,-1829 931.737,-1719.74 1073.56,-1617.08 985.819,-1496 941.817,-1435.28 857.031,-1404.62 802.43,-1390.51"/>
<polygon fill="none" stroke="black" points="803.152,-1387.08 792.603,-1388.06 801.461,-1393.88 803.152,-1387.08"/>
</g>
<!-- \\SourceCode\\Entity\\SpecialCharacter -->
<g id="node3" class="node"><title>\\SourceCode\\Entity\\SpecialCharacter</title>
<polygon fill="none" stroke="black" points="1223.32,-1820 1098.32,-1820 1098.32,-1784 1223.32,-1784 1223.32,-1820"/>
<text text-anchor="middle" x="1160.82" y="-1799.2" font-family="Courier,monospace" font-size="11.00">SpecialCharacter</text>
</g>
<!-- \\SourceCode\\Entity\\SpecialCharacter&#45;&gt;\\Application\\Entity\\Entity -->
<g id="edge4" class="edge"><title>\\SourceCode\\Entity\\SpecialCharacter&#45;&gt;\\Application\\Entity\\Entity</title>
<path fill="none" stroke="black" d="M1098.3,-1802.76C1075.13,-1799.82 1050.4,-1792.27 1033.82,-1775 946.679,-1684.24 1061.03,-1596.87 985.819,-1496 941.123,-1436.06 856.929,-1405.23 802.585,-1390.86"/>
<polygon fill="none" stroke="black" points="803.356,-1387.45 792.801,-1388.37 801.627,-1394.23 803.356,-1387.45"/>
</g>
<!-- \\SourceCode\\Entity\\DataType -->
<g id="node4" class="node"><title>\\SourceCode\\Entity\\DataType</title>
<polygon fill="none" stroke="black" points="1196.32,-1766 1125.32,-1766 1125.32,-1730 1196.32,-1730 1196.32,-1766"/>
<text text-anchor="middle" x="1160.82" y="-1745.2" font-family="Courier,monospace" font-size="11.00">DataType</text>
</g>
<!-- \\SourceCode\\Entity\\DataType&#45;&gt;\\Application\\Entity\\Entity -->
<g id="edge17" class="edge"><title>\\SourceCode\\Entity\\DataType&#45;&gt;\\Application\\Entity\\Entity</title>
<path fill="none" stroke="black" d="M1125.1,-1750.16C1096.72,-1749.93 1057.54,-1744.74 1033.82,-1721 961.55,-1648.67 1048.56,-1576.74 985.819,-1496 940.07,-1437.13 856.564,-1406.05 802.597,-1391.33"/>
<polygon fill="none" stroke="black" points="803.441,-1387.93 792.879,-1388.77 801.658,-1394.7 803.441,-1387.93"/>
</g>
<!-- \\SourceCode\\Entity\\GraphElement -->
<g id="node5" class="node"><title>\\SourceCode\\Entity\\GraphElement</title>
<polygon fill="none" stroke="black" points="1209.82,-1712 1111.82,-1712 1111.82,-1676 1209.82,-1676 1209.82,-1712"/>
<text text-anchor="middle" x="1160.82" y="-1691.2" font-family="Courier,monospace" font-size="11.00">GraphElement</text>
</g>
<!-- \\SourceCode\\Entity\\GraphElement&#45;&gt;\\Application\\Entity\\Entity -->
<g id="edge24" class="edge"><title>\\SourceCode\\Entity\\GraphElement&#45;&gt;\\Application\\Entity\\Entity</title>
<path fill="none" stroke="black" d="M1111.7,-1681.95C1085.49,-1673.14 1054.32,-1658.69 1033.82,-1636 989.717,-1587.2 1029.23,-1545.42 985.819,-1496 937.002,-1440.42 855.375,-1408.59 802.508,-1392.8"/>
<polygon fill="none" stroke="black" points="803.24,-1389.37 792.661,-1389.94 801.291,-1396.09 803.24,-1389.37"/>
</g>
<!-- \\SourceCode\\Entity\\LogicalConnective -->
<g id="node6" class="node"><title>\\SourceCode\\Entity\\LogicalConnective</title>
<polygon fill="none" stroke="black" points="1226.32,-2144 1095.32,-2144 1095.32,-2108 1226.32,-2108 1226.32,-2144"/>
<text text-anchor="middle" x="1160.82" y="-2123.2" font-family="Courier,monospace" font-size="11.00">LogicalConnective</text>
</g>
<!-- \\SourceCode\\Entity\\LogicalConnective&#45;&gt;\\Application\\Entity\\Entity -->
<g id="edge26" class="edge"><title>\\SourceCode\\Entity\\LogicalConnective&#45;&gt;\\Application\\Entity\\Entity</title>
<path fill="none" stroke="black" d="M1095.2,-2127.21C1072.6,-2124.16 1049.08,-2116.41 1033.82,-2099 945.225,-1997.9 1061.19,-1607.3 985.819,-1496 943.654,-1433.73 857.932,-1403.48 802.697,-1389.88"/>
<polygon fill="none" stroke="black" points="803.292,-1386.42 792.755,-1387.53 801.682,-1393.23 803.292,-1386.42"/>
</g>
<!-- \\SourceCode\\Entity\\SourceCode -->
<g id="node7" class="node"><title>\\SourceCode\\Entity\\SourceCode</title>
<polygon fill="none" stroke="black" points="1202.82,-2090 1118.82,-2090 1118.82,-2054 1202.82,-2054 1202.82,-2090"/>
<text text-anchor="middle" x="1160.82" y="-2069.2" font-family="Courier,monospace" font-size="11.00">SourceCode</text>
</g>
<!-- \\SourceCode\\Entity\\SourceCode&#45;&gt;\\Application\\Entity\\Entity -->
<g id="edge29" class="edge"><title>\\SourceCode\\Entity\\SourceCode&#45;&gt;\\Application\\Entity\\Entity</title>
<path fill="none" stroke="black" d="M1118.72,-2074.86C1090.55,-2074.39 1054.63,-2068.56 1033.82,-2045 952.749,-1953.21 1054.88,-1597.14 985.819,-1496 943.412,-1433.9 857.761,-1403.59 802.606,-1389.94"/>
<polygon fill="none" stroke="black" points="803.218,-1386.49 792.68,-1387.58 801.599,-1393.3 803.218,-1386.49"/>
</g>
<!-- \\SourceCode\\Entity\\Problem -->
<g id="node8" class="node"><title>\\SourceCode\\Entity\\Problem</title>
<polygon fill="none" stroke="black" points="1192.82,-2036 1128.82,-2036 1128.82,-2000 1192.82,-2000 1192.82,-2036"/>
<text text-anchor="middle" x="1160.82" y="-2015.2" font-family="Courier,monospace" font-size="11.00">Problem</text>
</g>
<!-- \\SourceCode\\Entity\\Problem&#45;&gt;\\Application\\Entity\\Entity -->
<g id="edge31" class="edge"><title>\\SourceCode\\Entity\\Problem&#45;&gt;\\Application\\Entity\\Entity</title>
<path fill="none" stroke="black" d="M1128.63,-2020.76C1099.56,-2021.46 1057.27,-2017.3 1033.82,-1991 960.269,-1908.51 1048.57,-1586.97 985.819,-1496 943.119,-1434.1 857.554,-1403.73 802.497,-1390.01"/>
<polygon fill="none" stroke="black" points="803.129,-1386.57 792.589,-1387.64 801.499,-1393.37 803.129,-1386.57"/>
</g>
<!-- \\SourceCode\\Entity\\CategoryProblem -->
<g id="node9" class="node"><title>\\SourceCode\\Entity\\CategoryProblem</title>
<polygon fill="none" stroke="black" points="1219.82,-1982 1101.82,-1982 1101.82,-1946 1219.82,-1946 1219.82,-1982"/>
<text text-anchor="middle" x="1160.82" y="-1961.2" font-family="Courier,monospace" font-size="11.00">CategoryProblem</text>
</g>
<!-- \\SourceCode\\Entity\\CategoryProblem&#45;&gt;\\Application\\Entity\\Entity -->
<g id="edge32" class="edge"><title>\\SourceCode\\Entity\\CategoryProblem&#45;&gt;\\Application\\Entity\\Entity</title>
<path fill="none" stroke="black" d="M1101.65,-1965.71C1077.29,-1963.23 1050.75,-1955.77 1033.82,-1937 901.745,-1790.62 1098.72,-1657.63 985.819,-1496 942.879,-1434.53 857.783,-1404.08 802.83,-1390.23"/>
<polygon fill="none" stroke="black" points="803.48,-1386.78 792.937,-1387.83 801.831,-1393.58 803.48,-1386.78"/>
</g>
<!-- \\SourceCode\\Controller\\Factory\\LanguageControllerFactory -->
<g id="node10" class="node"><title>\\SourceCode\\Controller\\Factory\\LanguageControllerFactory</title>
<polygon fill="none" stroke="black" points="1253.32,-1604 1068.32,-1604 1068.32,-1568 1253.32,-1568 1253.32,-1604"/>
<text text-anchor="middle" x="1160.82" y="-1583.2" font-family="Courier,monospace" font-size="11.00">LanguageControllerFactory</text>
</g>
<!-- \\Zend\\ServiceManager\\Factory\\FactoryInterface -->
<g id="node39" class="node"><title>\\Zend\\ServiceManager\\Factory\\FactoryInterface</title>
<ellipse fill="none" stroke="black" cx="221.63" cy="-1518" rx="181.168" ry="18"/>
<text text-anchor="middle" x="221.63" y="-1514.3" font-family="Times,serif" font-size="14.00" fill="gray">\Zend\ServiceManager\Factory\FactoryInterface</text>
</g>
<!-- \\SourceCode\\Controller\\Factory\\LanguageControllerFactory&#45;&gt;\\Zend\\ServiceManager\\Factory\\FactoryInterface -->
<g id="edge15" class="edge"><title>\\SourceCode\\Controller\\Factory\\LanguageControllerFactory&#45;&gt;\\Zend\\ServiceManager\\Factory\\FactoryInterface</title>
<path fill="none" stroke="black" stroke-dasharray="1,5" d="M1068.08,-1585.81C942.886,-1584.82 711.629,-1580.36 515.261,-1562 449.876,-1555.89 376.829,-1544.91 320.072,-1535.45"/>
<polygon fill="none" stroke="black" points="320.472,-1531.97 310.031,-1533.76 319.313,-1538.87 320.472,-1531.97"/>
</g>
<!-- \\SourceCode\\Controller\\LanguageController -->
<g id="node11" class="node"><title>\\SourceCode\\Controller\\LanguageController</title>
<polygon fill="none" stroke="black" points="1229.82,-1550 1091.82,-1550 1091.82,-1514 1229.82,-1514 1229.82,-1550"/>
<text text-anchor="middle" x="1160.82" y="-1529.2" font-family="Courier,monospace" font-size="11.00">LanguageController</text>
</g>
<!-- \\Zend\\Mvc\\Controller\\AbstractRestfulController -->
<g id="node34" class="node"><title>\\Zend\\Mvc\\Controller\\AbstractRestfulController</title>
<ellipse fill="none" stroke="black" cx="750.54" cy="-164" rx="182.768" ry="18"/>
<text text-anchor="middle" x="750.54" y="-160.3" font-family="Times,serif" font-size="14.00" fill="gray">\Zend\Mvc\Controller\AbstractRestfulController</text>
</g>
<!-- \\SourceCode\\Controller\\LanguageController&#45;&gt;\\Zend\\Mvc\\Controller\\AbstractRestfulController -->
<g id="edge3" class="edge"><title>\\SourceCode\\Controller\\LanguageController&#45;&gt;\\Zend\\Mvc\\Controller\\AbstractRestfulController</title>
<path fill="none" stroke="black" d="M1091.56,-1531.2C1069.96,-1527.34 1048.03,-1518.99 1033.82,-1502 972.978,-1429.28 1009.53,-741.805 985.819,-650 937.514,-462.958 814.986,-261.858 769.178,-190.747"/>
<polygon fill="none" stroke="black" points="771.863,-188.454 763.486,-181.968 765.989,-192.263 771.863,-188.454"/>
</g>
<!-- \\SourceCode\\Service\\DataCollect -->
<g id="node12" class="node"><title>\\SourceCode\\Service\\DataCollect</title>
<polygon fill="none" stroke="black" points="1206.32,-1470 1115.32,-1470 1115.32,-1434 1206.32,-1434 1206.32,-1470"/>
<text text-anchor="middle" x="1160.82" y="-1449.2" font-family="Courier,monospace" font-size="11.00">DataCollect</text>
</g>
<!-- \\SourceCode\\Service\\AnalysisStructure -->
<g id="node13" class="node"><title>\\SourceCode\\Service\\AnalysisStructure</title>
<polygon fill="none" stroke="black" points="1226.32,-1416 1095.32,-1416 1095.32,-1380 1226.32,-1380 1226.32,-1416"/>
<text text-anchor="middle" x="1160.82" y="-1395.2" font-family="Courier,monospace" font-size="11.00">AnalysisStructure</text>
</g>
<!-- \\SourceCode\\Service\\GraphStructure -->
<g id="node14" class="node"><title>\\SourceCode\\Service\\GraphStructure</title>
<polygon fill="none" stroke="black" points="1216.32,-1362 1105.32,-1362 1105.32,-1326 1216.32,-1326 1216.32,-1362"/>
<text text-anchor="middle" x="1160.82" y="-1341.2" font-family="Courier,monospace" font-size="11.00">GraphStructure</text>
</g>
<!-- \\SourceCode\\Model\\CodeBypassCommand -->
<g id="node15" class="node"><title>\\SourceCode\\Model\\CodeBypassCommand</title>
<polygon fill="none" stroke="black" points="1226.32,-1282 1095.32,-1282 1095.32,-1246 1226.32,-1246 1226.32,-1282"/>
<text text-anchor="middle" x="1160.82" y="-1261.2" font-family="Courier,monospace" font-size="11.00">CodeBypassCommand</text>
</g>
<!-- \\SourceCode\\Model\\Vertex -->
<g id="node16" class="node"><title>\\SourceCode\\Model\\Vertex</title>
<polygon fill="none" stroke="black" points="1189.32,-1228 1132.32,-1228 1132.32,-1192 1189.32,-1192 1189.32,-1228"/>
<text text-anchor="middle" x="1160.82" y="-1207.2" font-family="Courier,monospace" font-size="11.00">Vertex</text>
</g>
<!-- \\SourceCode\\Validation\\UserValidator -->
<g id="node17" class="node"><title>\\SourceCode\\Validation\\UserValidator</title>
<polygon fill="none" stroke="black" points="1212.82,-1102 1108.82,-1102 1108.82,-1066 1212.82,-1066 1212.82,-1102"/>
<text text-anchor="middle" x="1160.82" y="-1081.2" font-family="Courier,monospace" font-size="11.00">UserValidator</text>
</g>
<!-- \\Zend\\InputFilter\\InputFilter -->
<g id="node35" class="node"><title>\\Zend\\InputFilter\\InputFilter</title>
<ellipse fill="none" stroke="black" cx="750.54" cy="-110" rx="111.28" ry="18"/>
<text text-anchor="middle" x="750.54" y="-106.3" font-family="Times,serif" font-size="14.00" fill="gray">\Zend\InputFilter\InputFilter</text>
</g>
<!-- \\SourceCode\\Validation\\UserValidator&#45;&gt;\\Zend\\InputFilter\\InputFilter -->
<g id="edge16" class="edge"><title>\\SourceCode\\Validation\\UserValidator&#45;&gt;\\Zend\\InputFilter\\InputFilter</title>
<path fill="none" stroke="black" d="M1108.54,-1086.72C1082.18,-1085.16 1051.89,-1078.2 1033.82,-1057 901.009,-901.202 1125.98,-286.221 985.819,-137 947.846,-96.5722 884.458,-91.3705 833.186,-95.4341"/>
<polygon fill="none" stroke="black" points="832.741,-91.9602 823.104,-96.3627 833.383,-98.9307 832.741,-91.9602"/>
</g>
<!-- \\SourceCode\\Validation\\ProfileValidator -->
<g id="node18" class="node"><title>\\SourceCode\\Validation\\ProfileValidator</title>
<polygon fill="none" stroke="black" points="1223.32,-1048 1098.32,-1048 1098.32,-1012 1223.32,-1012 1223.32,-1048"/>
<text text-anchor="middle" x="1160.82" y="-1027.2" font-family="Courier,monospace" font-size="11.00">ProfileValidator</text>
</g>
<!-- \\SourceCode\\Validation\\ProfileValidator&#45;&gt;\\Zend\\InputFilter\\InputFilter -->
<g id="edge27" class="edge"><title>\\SourceCode\\Validation\\ProfileValidator&#45;&gt;\\Zend\\InputFilter\\InputFilter</title>
<path fill="none" stroke="black" d="M1119.9,-1011.95C1090.54,-996.356 1052.61,-970.825 1033.82,-936 991.577,-857.734 1046.96,-201.586 985.819,-137 947.819,-96.8614 884.747,-91.5481 833.612,-95.4924"/>
<polygon fill="none" stroke="black" points="833.202,-92.0151 823.555,-96.3971 833.829,-98.9869 833.202,-92.0151"/>
</g>
<!-- \\SourceCode\\Module -->
<g id="node19" class="node"><title>\\SourceCode\\Module</title>
<polygon fill="none" stroke="black" points="1189.32,-1174 1132.32,-1174 1132.32,-1138 1189.32,-1138 1189.32,-1174"/>
<text text-anchor="middle" x="1160.82" y="-1153.2" font-family="Courier,monospace" font-size="11.00">Module</text>
</g>
<!-- \\Zend\\ModuleManager\\Feature\\ConfigProviderInterface -->
<g id="node36" class="node"><title>\\Zend\\ModuleManager\\Feature\\ConfigProviderInterface</title>
<ellipse fill="none" stroke="black" cx="221.63" cy="-1464" rx="209.863" ry="18"/>
<text text-anchor="middle" x="221.63" y="-1460.3" font-family="Times,serif" font-size="14.00" fill="gray">\Zend\ModuleManager\Feature\ConfigProviderInterface</text>
</g>
<!-- \\SourceCode\\Module&#45;&gt;\\Zend\\ModuleManager\\Feature\\ConfigProviderInterface -->
<g id="edge21" class="edge"><title>\\SourceCode\\Module&#45;&gt;\\Zend\\ModuleManager\\Feature\\ConfigProviderInterface</title>
<path fill="none" stroke="black" stroke-dasharray="1,5" d="M1132.27,-1152.89C1103.51,-1151.3 1059.14,-1153.84 1033.82,-1180 938.077,-1278.92 1090.43,-1396.52 985.819,-1486 940.23,-1525 577.458,-1497.84 368.905,-1478.59"/>
<polygon fill="none" stroke="black" points="369.066,-1475.09 358.785,-1477.65 368.419,-1482.06 369.066,-1475.09"/>
</g>
<!-- \\Zend\\ModuleManager\\Feature\\ServiceProviderInterface -->
<g id="node37" class="node"><title>\\Zend\\ModuleManager\\Feature\\ServiceProviderInterface</title>
<ellipse fill="none" stroke="black" cx="221.63" cy="-664" rx="211.762" ry="18"/>
<text text-anchor="middle" x="221.63" y="-660.3" font-family="Times,serif" font-size="14.00" fill="gray">\Zend\ModuleManager\Feature\ServiceProviderInterface</text>
</g>
<!-- \\SourceCode\\Module&#45;&gt;\\Zend\\ModuleManager\\Feature\\ServiceProviderInterface -->
<g id="edge22" class="edge"><title>\\SourceCode\\Module&#45;&gt;\\Zend\\ModuleManager\\Feature\\ServiceProviderInterface</title>
<path fill="none" stroke="black" stroke-dasharray="1,5" d="M749.54,-664C685.438,-631.972 502.453,-639.145 370.103,-649.534"/>
<polygon fill="none" stroke="black" points="369.554,-646.067 359.865,-650.352 370.112,-653.044 369.554,-646.067"/>
</g>
<!-- \\Zend\\ModuleManager\\Feature\\ControllerProviderInterface -->
<g id="node38" class="node"><title>\\Zend\\ModuleManager\\Feature\\ControllerProviderInterface</title>
<ellipse fill="none" stroke="black" cx="221.63" cy="-610" rx="221.761" ry="18"/>
<text text-anchor="middle" x="221.63" y="-606.3" font-family="Times,serif" font-size="14.00" fill="gray">\Zend\ModuleManager\Feature\ControllerProviderInterface</text>
</g>
<!-- \\SourceCode\\Module&#45;&gt;\\Zend\\ModuleManager\\Feature\\ControllerProviderInterface -->
<g id="edge23" class="edge"><title>\\SourceCode\\Module&#45;&gt;\\Zend\\ModuleManager\\Feature\\ControllerProviderInterface</title>
<path fill="none" stroke="black" stroke-dasharray="1,5" d="M1132.31,-1157.52C1105.01,-1157.67 1063.11,-1154.1 1033.82,-1134 832.904,-996.133 969.514,-772.91 751.54,-664"/>
<path fill="none" stroke="black" stroke-dasharray="1,5" d="M749.54,-664C639.768,-609.153 501.264,-596.813 393.81,-597.568"/>
<polygon fill="none" stroke="black" points="393.471,-594.072 383.51,-597.681 393.548,-601.071 393.471,-594.072"/>
</g>
<!-- \\User\\Validation\\ProfileValidator -->
<g id="node20" class="node"><title>\\User\\Validation\\ProfileValidator</title>
<polygon fill="none" stroke="black" points="1223.32,-420 1098.32,-420 1098.32,-384 1223.32,-384 1223.32,-420"/>
<text text-anchor="middle" x="1160.82" y="-399.2" font-family="Courier,monospace" font-size="11.00">ProfileValidator</text>
</g>
<!-- \\User\\Validation\\ProfileValidator&#45;&gt;\\Zend\\InputFilter\\InputFilter -->
<g id="edge5" class="edge"><title>\\User\\Validation\\ProfileValidator&#45;&gt;\\Zend\\InputFilter\\InputFilter</title>
<path fill="none" stroke="black" d="M1098.23,-402.471C1075.18,-399.469 1050.56,-391.949 1033.82,-375 957.979,-298.238 1065.27,-210.02 985.819,-137 947.404,-101.693 889.18,-94.8468 840.388,-96.8751"/>
<polygon fill="none" stroke="black" points="839.924,-93.3951 830.13,-97.4355 840.306,-100.385 839.924,-93.3951"/>
</g>
<!-- \\User\\Validation\\UserValidator -->
<g id="node21" class="node"><title>\\User\\Validation\\UserValidator</title>
<polygon fill="none" stroke="black" points="1212.82,-366 1108.82,-366 1108.82,-330 1212.82,-330 1212.82,-366"/>
<text text-anchor="middle" x="1160.82" y="-345.2" font-family="Courier,monospace" font-size="11.00">UserValidator</text>
</g>
<!-- \\User\\Validation\\UserValidator&#45;&gt;\\Zend\\InputFilter\\InputFilter -->
<g id="edge25" class="edge"><title>\\User\\Validation\\UserValidator&#45;&gt;\\Zend\\InputFilter\\InputFilter</title>
<path fill="none" stroke="black" d="M1108.73,-331.687C1083.09,-321.162 1053.4,-305.059 1033.82,-282 989.881,-230.254 1038.48,-179.839 985.819,-137 947.723,-106.008 893.893,-98.1312 847.437,-98.5121"/>
<polygon fill="none" stroke="black" points="847.264,-95.0148 837.34,-98.7234 847.411,-102.013 847.264,-95.0148"/>
</g>
<!-- \\User\\Controller\\Factory\\AuthControllerFactory -->
<g id="node22" class="node"><title>\\User\\Controller\\Factory\\AuthControllerFactory</title>
<polygon fill="none" stroke="black" points="1239.82,-654 1081.82,-654 1081.82,-618 1239.82,-618 1239.82,-654"/>
<text text-anchor="middle" x="1160.82" y="-633.2" font-family="Courier,monospace" font-size="11.00">AuthControllerFactory</text>
</g>
<!-- \\User\\Controller\\Factory\\AuthControllerFactory&#45;&gt;\\Zend\\ServiceManager\\Factory\\FactoryInterface -->
<g id="edge13" class="edge"><title>\\User\\Controller\\Factory\\AuthControllerFactory&#45;&gt;\\Zend\\ServiceManager\\Factory\\FactoryInterface</title>
<path fill="none" stroke="black" stroke-dasharray="1,5" d="M1108.86,-654.1C1081.74,-666.548 1050.6,-685.964 1033.82,-714 945.55,-861.491 1104.91,-1362.05 985.819,-1486 913.301,-1561.48 841.186,-1455.97 751.54,-1510"/>
<path fill="none" stroke="black" stroke-dasharray="1,5" d="M749.54,-1510C686.728,-1547.86 495.933,-1541.43 362.092,-1531.35"/>
<polygon fill="none" stroke="black" points="361.99,-1527.83 351.751,-1530.55 361.453,-1534.81 361.99,-1527.83"/>
</g>
<!-- \\User\\Controller\\AuthController -->
<g id="node23" class="node"><title>\\User\\Controller\\AuthController</title>
<polygon fill="none" stroke="black" points="1216.32,-600 1105.32,-600 1105.32,-564 1216.32,-564 1216.32,-600"/>
<text text-anchor="middle" x="1160.82" y="-579.2" font-family="Courier,monospace" font-size="11.00">AuthController</text>
</g>
<!-- \\User\\Controller\\AuthController&#45;&gt;\\Zend\\Mvc\\Controller\\AbstractRestfulController -->
<g id="edge12" class="edge"><title>\\User\\Controller\\AuthController&#45;&gt;\\Zend\\Mvc\\Controller\\AbstractRestfulController</title>
<path fill="none" stroke="black" d="M1105.3,-579.027C1081.78,-575.637 1054.89,-568.757 1033.82,-555 889.185,-460.592 794.348,-264.43 762.974,-191.817"/>
<polygon fill="none" stroke="black" points="766.108,-190.244 758.969,-182.415 759.668,-192.987 766.108,-190.244"/>
</g>
<!-- \\User\\Controller\\UserController -->
<g id="node24" class="node"><title>\\User\\Controller\\UserController</title>
<polygon fill="none" stroke="black" points="1216.32,-546 1105.32,-546 1105.32,-510 1216.32,-510 1216.32,-546"/>
<text text-anchor="middle" x="1160.82" y="-525.2" font-family="Courier,monospace" font-size="11.00">UserController</text>
</g>
<!-- \\User\\Controller\\UserController&#45;&gt;\\Zend\\Mvc\\Controller\\AbstractRestfulController -->
<g id="edge20" class="edge"><title>\\User\\Controller\\UserController&#45;&gt;\\Zend\\Mvc\\Controller\\AbstractRestfulController</title>
<path fill="none" stroke="black" d="M1105.16,-526.784C1081.88,-524.227 1055.22,-518.449 1033.82,-506 898.397,-427.232 799.908,-257.595 765.203,-191.32"/>
<polygon fill="none" stroke="black" points="768.249,-189.591 760.549,-182.315 762.031,-192.806 768.249,-189.591"/>
</g>
<!-- \\User\\Entity\\Profile -->
<g id="node25" class="node"><title>\\User\\Entity\\Profile</title>
<polygon fill="none" stroke="black" points="1192.82,-816 1128.82,-816 1128.82,-780 1192.82,-780 1192.82,-816"/>
<text text-anchor="middle" x="1160.82" y="-795.2" font-family="Courier,monospace" font-size="11.00">Profile</text>
</g>
<!-- \\User\\Entity\\Profile&#45;&gt;\\Application\\Entity\\Entity -->
<g id="edge14" class="edge"><title>\\User\\Entity\\Profile&#45;&gt;\\Application\\Entity\\Entity</title>
<path fill="none" stroke="black" d="M1128.57,-803.323C1099.04,-810.121 1056.03,-824.958 1033.82,-856 973.245,-940.666 1054.1,-1243.42 985.819,-1322 940.635,-1374 856.863,-1383.13 802.701,-1383.01"/>
<polygon fill="none" stroke="black" points="802.66,-1379.51 792.616,-1382.88 802.57,-1386.51 802.66,-1379.51"/>
</g>
<!-- \\User\\Entity\\User -->
<g id="node26" class="node"><title>\\User\\Entity\\User</title>
<polygon fill="none" stroke="black" points="1187.82,-762 1133.82,-762 1133.82,-726 1187.82,-726 1187.82,-762"/>
<text text-anchor="middle" x="1160.82" y="-741.2" font-family="Courier,monospace" font-size="11.00">User</text>
</g>
<!-- \\User\\Entity\\User&#45;&gt;\\Application\\Entity\\Entity -->
<g id="edge19" class="edge"><title>\\User\\Entity\\User&#45;&gt;\\Application\\Entity\\Entity</title>
<path fill="none" stroke="black" d="M1133.69,-741.366C1104.63,-740.037 1058.55,-742.994 1033.82,-771 952.471,-863.135 1065.7,-1228.59 985.819,-1322 941.046,-1374.35 857.157,-1383.38 802.858,-1383.14"/>
<polygon fill="none" stroke="black" points="802.799,-1379.64 792.747,-1382.99 802.693,-1386.64 802.799,-1379.64"/>
</g>
<!-- \\User\\Service\\Factory\\AuthenticationServiceFactory -->
<g id="node27" class="node"><title>\\User\\Service\\Factory\\AuthenticationServiceFactory</title>
<polygon fill="none" stroke="black" points="1263.82,-904 1057.82,-904 1057.82,-868 1263.82,-868 1263.82,-904"/>
<text text-anchor="middle" x="1160.82" y="-883.2" font-family="Courier,monospace" font-size="11.00">AuthenticationServiceFactory</text>
</g>
<!-- \\User\\Service\\Factory\\AuthenticationServiceFactory&#45;&gt;\\Zend\\ServiceManager\\Factory\\FactoryInterface -->
<g id="edge18" class="edge"><title>\\User\\Service\\Factory\\AuthenticationServiceFactory&#45;&gt;\\Zend\\ServiceManager\\Factory\\FactoryInterface</title>
<path fill="none" stroke="black" stroke-dasharray="1,5" d="M1129.19,-904.106C1099.25,-923.646 1055.13,-957.721 1033.82,-1000 984.969,-1096.91 1062.42,-1409.12 985.819,-1486 911.942,-1560.15 841.186,-1455.97 751.54,-1510"/>
</g>
<!-- \\User\\Module -->
<g id="node28" class="node"><title>\\User\\Module</title>
<polygon fill="none" stroke="black" points="1189.32,-492 1132.32,-492 1132.32,-456 1189.32,-456 1189.32,-492"/>
<text text-anchor="middle" x="1160.82" y="-471.2" font-family="Courier,monospace" font-size="11.00">Module</text>
</g>
<!-- \\User\\Module&#45;&gt;\\Zend\\ModuleManager\\Feature\\ConfigProviderInterface -->
<g id="edge9" class="edge"><title>\\User\\Module&#45;&gt;\\Zend\\ModuleManager\\Feature\\ConfigProviderInterface</title>
<path fill="none" stroke="black" stroke-dasharray="1,5" d="M1132.26,-470.424C1103.05,-468.352 1057.89,-470.388 1033.82,-498 965.678,-576.161 1059.39,-1356.93 985.819,-1430 901.182,-1514.05 558.707,-1496.77 362.506,-1479.07"/>
<polygon fill="none" stroke="black" points="362.684,-1475.57 352.406,-1478.14 362.046,-1482.54 362.684,-1475.57"/>
</g>
<!-- \\User\\Module&#45;&gt;\\Zend\\ModuleManager\\Feature\\ServiceProviderInterface -->
<g id="edge10" class="edge"><title>\\User\\Module&#45;&gt;\\Zend\\ModuleManager\\Feature\\ServiceProviderInterface</title>
<path fill="none" stroke="black" stroke-dasharray="1,5" d="M749.54,-64C645.095,-66.1065 590.892,-10.9374 515.261,-83 335.501,-254.277 619.485,-462.087 443.261,-637 437.706,-642.513 431.647,-647.323 425.197,-651.505"/>
<polygon fill="none" stroke="black" points="423.009,-648.732 416.172,-656.826 426.564,-654.762 423.009,-648.732"/>
</g>
<!-- \\User\\Module&#45;&gt;\\Zend\\ModuleManager\\Feature\\ControllerProviderInterface -->
<g id="edge11" class="edge"><title>\\User\\Module&#45;&gt;\\Zend\\ModuleManager\\Feature\\ControllerProviderInterface</title>
<path fill="none" stroke="black" stroke-dasharray="1,5" d="M1132.19,-477.731C1103.36,-479.926 1058.93,-478.225 1033.82,-452 919.448,-332.542 1105.56,-197.077 985.819,-83 948.001,-46.9709 803.762,-62.9467 751.54,-64"/>
<path fill="none" stroke="black" stroke-dasharray="1,5" d="M749.54,-64C645.095,-66.1065 603.074,-26.4144 515.261,-83 326.983,-204.323 248.983,-491.137 228.467,-581.928"/>
<polygon fill="none" stroke="black" points="225.032,-581.249 226.297,-591.768 231.868,-582.756 225.032,-581.249"/>
</g>
<!-- \\Application\\Controller\\Factory\\ControllerFactory -->
<g id="node30" class="node"><title>\\Application\\Controller\\Factory\\ControllerFactory</title>
<polygon fill="none" stroke="black" points="816.04,-1290 685.04,-1290 685.04,-1254 816.04,-1254 816.04,-1290"/>
<text text-anchor="middle" x="750.54" y="-1269.2" font-family="Courier,monospace" font-size="11.00">ControllerFactory</text>
</g>
<!-- \\Application\\Controller\\Factory\\ControllerFactory&#45;&gt;\\Zend\\ServiceManager\\Factory\\FactoryInterface -->
<g id="edge33" class="edge"><title>\\Application\\Controller\\Factory\\ControllerFactory&#45;&gt;\\Zend\\ServiceManager\\Factory\\FactoryInterface</title>
<path fill="none" stroke="black" stroke-dasharray="1,5" d="M684.802,-1279.94C633.681,-1289.17 563.211,-1308.78 515.261,-1350 461.901,-1395.87 500.926,-1450.68 443.261,-1491 431.936,-1498.92 419.463,-1505.15 406.384,-1510.01"/>
<polygon fill="none" stroke="black" points="405.084,-1506.76 396.761,-1513.31 407.356,-1513.38 405.084,-1506.76"/>
</g>
<!-- \\Application\\Controller\\IndexController -->
<g id="node31" class="node"><title>\\Application\\Controller\\IndexController</title>
<polygon fill="none" stroke="black" points="809.54,-1236 691.54,-1236 691.54,-1200 809.54,-1200 809.54,-1236"/>
<text text-anchor="middle" x="750.54" y="-1215.2" font-family="Courier,monospace" font-size="11.00">IndexController</text>
</g>
<!-- \\Zend\\Mvc\\Controller\\AbstractActionController -->
<g id="node41" class="node"><title>\\Zend\\Mvc\\Controller\\AbstractActionController</title>
<ellipse fill="none" stroke="black" cx="221.63" cy="-1218" rx="180.868" ry="18"/>
<text text-anchor="middle" x="221.63" y="-1214.3" font-family="Times,serif" font-size="14.00" fill="gray">\Zend\Mvc\Controller\AbstractActionController</text>
</g>
<!-- \\Application\\Controller\\IndexController&#45;&gt;\\Zend\\Mvc\\Controller\\AbstractActionController -->
<g id="edge30" class="edge"><title>\\Application\\Controller\\IndexController&#45;&gt;\\Zend\\Mvc\\Controller\\AbstractActionController</title>
<path fill="none" stroke="black" d="M691.391,-1218C624.438,-1218 511.007,-1218 412.499,-1218"/>
<polygon fill="none" stroke="black" points="412.405,-1214.5 402.405,-1218 412.405,-1221.5 412.405,-1214.5"/>
</g>
<!-- \\Application\\Module -->
<g id="node32" class="node"><title>\\Application\\Module</title>
<polygon fill="none" stroke="black" points="779.04,-1182 722.04,-1182 722.04,-1146 779.04,-1146 779.04,-1182"/>
<text text-anchor="middle" x="750.54" y="-1161.2" font-family="Courier,monospace" font-size="11.00">Module</text>
</g>
<!-- \\Application\\Module&#45;&gt;\\Zend\\ModuleManager\\Feature\\ConfigProviderInterface -->
<g id="edge6" class="edge"><title>\\Application\\Module&#45;&gt;\\Zend\\ModuleManager\\Feature\\ConfigProviderInterface</title>
<path fill="none" stroke="black" stroke-dasharray="1,5" d="M721.714,-1161.28C676.257,-1158.02 584.228,-1156.44 515.261,-1188 482.537,-1202.97 312.802,-1372.76 247.901,-1438.36"/>
<polygon fill="none" stroke="black" points="245.063,-1436.25 240.523,-1445.82 250.042,-1441.17 245.063,-1436.25"/>
</g>
<!-- \\Application\\Module&#45;&gt;\\Zend\\ModuleManager\\Feature\\ServiceProviderInterface -->
<g id="edge7" class="edge"><title>\\Application\\Module&#45;&gt;\\Zend\\ModuleManager\\Feature\\ServiceProviderInterface</title>
<path fill="none" stroke="black" stroke-dasharray="1,5" d="M730.476,-1145.91C650.439,-1069.96 341.459,-776.76 248.948,-688.974"/>
<polygon fill="none" stroke="black" points="251.332,-686.411 241.669,-682.066 246.514,-691.489 251.332,-686.411"/>
</g>
<!-- \\Application\\Module&#45;&gt;\\Zend\\ModuleManager\\Feature\\ControllerProviderInterface -->
<g id="edge8" class="edge"><title>\\Application\\Module&#45;&gt;\\Zend\\ModuleManager\\Feature\\ControllerProviderInterface</title>
<path fill="none" stroke="black" stroke-dasharray="1,5" d="M745.276,-1145.95C726.068,-1069.03 639.815,-766.636 443.261,-637 435.311,-631.757 426.844,-627.274 418.033,-623.453"/>
<polygon fill="none" stroke="black" points="419.317,-620.197 408.733,-619.706 416.701,-626.69 419.317,-620.197"/>
</g>
<!-- \\ApplicationTest\\Controller\\IndexControllerTest -->
<g id="node33" class="node"><title>\\ApplicationTest\\Controller\\IndexControllerTest</title>
<polygon fill="none" stroke="black" points="1233.32,-250 1088.32,-250 1088.32,-214 1233.32,-214 1233.32,-250"/>
<text text-anchor="middle" x="1160.82" y="-229.2" font-family="Courier,monospace" font-size="11.00">IndexControllerTest</text>
</g>
<!-- \\Zend\\Test\\PHPUnit\\Controller\\AbstractHttpControllerTestCase -->
<g id="node40" class="node"><title>\\Zend\\Test\\PHPUnit\\Controller\\AbstractHttpControllerTestCase</title>
<ellipse fill="none" stroke="black" cx="750.54" cy="-18" rx="235.058" ry="18"/>
<text text-anchor="middle" x="750.54" y="-14.3" font-family="Times,serif" font-size="14.00" fill="gray">\ZendTest\PHPUnit\Controller\AbstractHttpControllerTestCase</text>
</g>
<!-- \\ApplicationTest\\Controller\\IndexControllerTest&#45;&gt;\\Zend\\Test\\PHPUnit\\Controller\\AbstractHttpControllerTestCase -->
<g id="edge28" class="edge"><title>\\ApplicationTest\\Controller\\IndexControllerTest&#45;&gt;\\Zend\\Test\\PHPUnit\\Controller\\AbstractHttpControllerTestCase</title>
<path fill="none" stroke="black" d="M1148.76,-213.979C1124.53,-176.258 1062.72,-89.2392 985.819,-50 971.587,-42.7381 956.267,-36.9447 940.518,-32.3411"/>
<polygon fill="none" stroke="black" points="941.234,-28.9079 930.664,-29.6259 939.375,-35.6564 941.234,-28.9079"/>
</g>
</g>
</svg>
