<?xml version="1.0" encoding="UTF-8" standalone="no"?>
<!DOCTYPE svg PUBLIC "-//W3C//DTD SVG 1.1//EN"
 "http://www.w3.org/Graphics/SVG/1.1/DTD/svg11.dtd">
<!-- Generated by graphviz version 2.38.0 (20140413.2041)
 -->
<!-- Title: G Pages: 1 -->
<svg width="1312pt" height="2244pt"
 viewBox="0.00 0.00 1311.82 2244.00" xmlns="http://www.w3.org/2000/svg" xmlns:xlink="http://www.w3.org/1999/xlink">
<g id="graph0" class="graph" transform="scale(1 1) rotate(0) translate(4 2240)">
<title>G</title>
<polygon fill="white" stroke="none" points="-4,4 -4,-2240 1307.82,-2240 1307.82,4 -4,4"/>
<g id="clust1" class="cluster"><title>cluster_Global</title>
<path fill="none" stroke="gray" d="M665.04,-190C665.04,-190 1283.82,-190 1283.82,-190 1289.82,-190 1295.82,-196 1295.82,-202 1295.82,-202 1295.82,-2216 1295.82,-2216 1295.82,-2222 1289.82,-2228 1283.82,-2228 1283.82,-2228 665.04,-2228 665.04,-2228 659.04,-2228 653.04,-2222 653.04,-2216 653.04,-2216 653.04,-202 653.04,-202 653.04,-196 659.04,-190 665.04,-190"/>
<text text-anchor="middle" x="974.429" y="-2215.2" font-family="Times,serif" font-size="11.00" fill="gray">Global</text>
</g>
<g id="clust2" class="cluster"><title>cluster_\ApplicationTest</title>
<path fill="none" stroke="gray" d="M1084.32,-198C1084.32,-198 1237.32,-198 1237.32,-198 1243.32,-198 1249.32,-204 1249.32,-210 1249.32,-210 1249.32,-294 1249.32,-294 1249.32,-300 1243.32,-306 1237.32,-306 1237.32,-306 1084.32,-306 1084.32,-306 1078.32,-306 1072.32,-300 1072.32,-294 1072.32,-294 1072.32,-210 1072.32,-210 1072.32,-204 1078.32,-198 1084.32,-198"/>
<text text-anchor="middle" x="1160.82" y="-293.2" font-family="Times,serif" font-size="11.00" fill="gray">ApplicationTest</text>
</g>
<g id="clust3" class="cluster"><title>cluster_\ApplicationTest\Controller</title>
<path fill="none" stroke="gray" d="M1092.32,-206C1092.32,-206 1229.32,-206 1229.32,-206 1235.32,-206 1241.32,-212 1241.32,-218 1241.32,-218 1241.32,-266 1241.32,-266 1241.32,-272 1235.32,-278 1229.32,-278 1229.32,-278 1092.32,-278 1092.32,-278 1086.32,-278 1080.32,-272 1080.32,-266 1080.32,-266 1080.32,-218 1080.32,-218 1080.32,-212 1086.32,-206 1092.32,-206"/>
<text text-anchor="middle" x="1160.82" y="-265.2" font-family="Times,serif" font-size="11.00" fill="gray">Controller</text>
</g>
<g id="clust4" class="cluster"><title>cluster_\Application</title>
<path fill="none" stroke="gray" d="M673.04,-1264C673.04,-1264 828.04,-1264 828.04,-1264 834.04,-1264 840.04,-1270 840.04,-1276 840.04,-1276 840.04,-1568 840.04,-1568 840.04,-1574 834.04,-1580 828.04,-1580 828.04,-1580 673.04,-1580 673.04,-1580 667.04,-1580 661.04,-1574 661.04,-1568 661.04,-1568 661.04,-1276 661.04,-1276 661.04,-1270 667.04,-1264 673.04,-1264"/>
<text text-anchor="middle" x="750.54" y="-1567.2" font-family="Times,serif" font-size="11.00" fill="gray">Application</text>
</g>
<g id="clust5" class="cluster"><title>cluster_\Application\Controller</title>
<path fill="none" stroke="gray" d="M681.04,-1398C681.04,-1398 820.04,-1398 820.04,-1398 826.04,-1398 832.04,-1404 832.04,-1410 832.04,-1410 832.04,-1540 832.04,-1540 832.04,-1546 826.04,-1552 820.04,-1552 820.04,-1552 681.04,-1552 681.04,-1552 675.04,-1552 669.04,-1546 669.04,-1540 669.04,-1540 669.04,-1410 669.04,-1410 669.04,-1404 675.04,-1398 681.04,-1398"/>
<text text-anchor="middle" x="750.54" y="-1539.2" font-family="Times,serif" font-size="11.00" fill="gray">Controller</text>
</g>
<g id="clust6" class="cluster"><title>cluster_\Application\Controller\Factory</title>
<path fill="none" stroke="gray" d="M689.04,-1452C689.04,-1452 812.04,-1452 812.04,-1452 818.04,-1452 824.04,-1458 824.04,-1464 824.04,-1464 824.04,-1512 824.04,-1512 824.04,-1518 818.04,-1524 812.04,-1524 812.04,-1524 689.04,-1524 689.04,-1524 683.04,-1524 677.04,-1518 677.04,-1512 677.04,-1512 677.04,-1464 677.04,-1464 677.04,-1458 683.04,-1452 689.04,-1452"/>
<text text-anchor="middle" x="750.54" y="-1511.2" font-family="Times,serif" font-size="11.00" fill="gray">Factory</text>
</g>
<g id="clust7" class="cluster"><title>cluster_\Application\Entity</title>
<path fill="none" stroke="gray" d="M712.54,-1318C712.54,-1318 788.54,-1318 788.54,-1318 794.54,-1318 800.54,-1324 800.54,-1330 800.54,-1330 800.54,-1378 800.54,-1378 800.54,-1384 794.54,-1390 788.54,-1390 788.54,-1390 712.54,-1390 712.54,-1390 706.54,-1390 700.54,-1384 700.54,-1378 700.54,-1378 700.54,-1330 700.54,-1330 700.54,-1324 706.54,-1318 712.54,-1318"/>
<text text-anchor="middle" x="750.54" y="-1377.2" font-family="Times,serif" font-size="11.00" fill="gray">Entity</text>
</g>
<g id="clust8" class="cluster"><title>cluster_\User</title>
<path fill="none" stroke="gray" d="M1045.82,-314C1045.82,-314 1275.82,-314 1275.82,-314 1281.82,-314 1287.82,-320 1287.82,-326 1287.82,-326 1287.82,-976 1287.82,-976 1287.82,-982 1281.82,-988 1275.82,-988 1275.82,-988 1045.82,-988 1045.82,-988 1039.82,-988 1033.82,-982 1033.82,-976 1033.82,-976 1033.82,-326 1033.82,-326 1033.82,-320 1039.82,-314 1045.82,-314"/>
<text text-anchor="middle" x="1160.82" y="-975.2" font-family="Times,serif" font-size="11.00" fill="gray">User</text>
</g>
<g id="clust9" class="cluster"><title>cluster_\User\Controller</title>
<path fill="none" stroke="gray" d="M1077.82,-636C1077.82,-636 1243.82,-636 1243.82,-636 1249.82,-636 1255.82,-642 1255.82,-648 1255.82,-648 1255.82,-832 1255.82,-832 1255.82,-838 1249.82,-844 1243.82,-844 1243.82,-844 1077.82,-844 1077.82,-844 1071.82,-844 1065.82,-838 1065.82,-832 1065.82,-832 1065.82,-648 1065.82,-648 1065.82,-642 1071.82,-636 1077.82,-636"/>
<text text-anchor="middle" x="1160.82" y="-831.2" font-family="Times,serif" font-size="11.00" fill="gray">Controller</text>
</g>
<g id="clust10" class="cluster"><title>cluster_\User\Controller\Factory</title>
<path fill="none" stroke="gray" d="M1085.82,-744C1085.82,-744 1235.82,-744 1235.82,-744 1241.82,-744 1247.82,-750 1247.82,-756 1247.82,-756 1247.82,-804 1247.82,-804 1247.82,-810 1241.82,-816 1235.82,-816 1235.82,-816 1085.82,-816 1085.82,-816 1079.82,-816 1073.82,-810 1073.82,-804 1073.82,-804 1073.82,-756 1073.82,-756 1073.82,-750 1079.82,-744 1085.82,-744"/>
<text text-anchor="middle" x="1160.82" y="-803.2" font-family="Times,serif" font-size="11.00" fill="gray">Factory</text>
</g>
<g id="clust11" class="cluster"><title>cluster_\User\Service</title>
<path fill="none" stroke="gray" d="M1053.82,-852C1053.82,-852 1267.82,-852 1267.82,-852 1273.82,-852 1279.82,-858 1279.82,-864 1279.82,-864 1279.82,-948 1279.82,-948 1279.82,-954 1273.82,-960 1267.82,-960 1267.82,-960 1053.82,-960 1053.82,-960 1047.82,-960 1041.82,-954 1041.82,-948 1041.82,-948 1041.82,-864 1041.82,-864 1041.82,-858 1047.82,-852 1053.82,-852"/>
<text text-anchor="middle" x="1160.82" y="-947.2" font-family="Times,serif" font-size="11.00" fill="gray">Service</text>
</g>
<g id="clust12" class="cluster"><title>cluster_\User\Service\Factory</title>
<path fill="none" stroke="gray" d="M1061.82,-860C1061.82,-860 1259.82,-860 1259.82,-860 1265.82,-860 1271.82,-866 1271.82,-872 1271.82,-872 1271.82,-920 1271.82,-920 1271.82,-926 1265.82,-932 1259.82,-932 1259.82,-932 1061.82,-932 1061.82,-932 1055.82,-932 1049.82,-926 1049.82,-920 1049.82,-920 1049.82,-872 1049.82,-872 1049.82,-866 1055.82,-860 1061.82,-860"/>
<text text-anchor="middle" x="1160.82" y="-919.2" font-family="Times,serif" font-size="11.00" fill="gray">Factory</text>
</g>
<g id="clust13" class="cluster"><title>cluster_\User\Entity</title>
<path fill="none" stroke="gray" d="M1132.82,-502C1132.82,-502 1188.82,-502 1188.82,-502 1194.82,-502 1200.82,-508 1200.82,-514 1200.82,-514 1200.82,-616 1200.82,-616 1200.82,-622 1194.82,-628 1188.82,-628 1188.82,-628 1132.82,-628 1132.82,-628 1126.82,-628 1120.82,-622 1120.82,-616 1120.82,-616 1120.82,-514 1120.82,-514 1120.82,-508 1126.82,-502 1132.82,-502"/>
<text text-anchor="middle" x="1160.82" y="-615.2" font-family="Times,serif" font-size="11.00" fill="gray">Entity</text>
</g>
<g id="clust14" class="cluster"><title>cluster_\User\Validation</title>
<path fill="none" stroke="gray" d="M1102.32,-322C1102.32,-322 1219.32,-322 1219.32,-322 1225.32,-322 1231.32,-328 1231.32,-334 1231.32,-334 1231.32,-436 1231.32,-436 1231.32,-442 1225.32,-448 1219.32,-448 1219.32,-448 1102.32,-448 1102.32,-448 1096.32,-448 1090.32,-442 1090.32,-436 1090.32,-436 1090.32,-334 1090.32,-334 1090.32,-328 1096.32,-322 1102.32,-322"/>
<text text-anchor="middle" x="1160.82" y="-435.2" font-family="Times,serif" font-size="11.00" fill="gray">Validation</text>
</g>
<g id="clust15" class="cluster"><title>cluster_\SourceCode</title>
<path fill="none" stroke="gray" d="M1056.32,-996C1056.32,-996 1265.32,-996 1265.32,-996 1271.32,-996 1277.32,-1002 1277.32,-1008 1277.32,-1008 1277.32,-2188 1277.32,-2188 1277.32,-2194 1271.32,-2200 1265.32,-2200 1265.32,-2200 1056.32,-2200 1056.32,-2200 1050.32,-2200 1044.32,-2194 1044.32,-2188 1044.32,-2188 1044.32,-1008 1044.32,-1008 1044.32,-1002 1050.32,-996 1056.32,-996"/>
<text text-anchor="middle" x="1160.82" y="-2187.2" font-family="Times,serif" font-size="11.00" fill="gray">SourceCode</text>
</g>
<g id="clust16" class="cluster"><title>cluster_\SourceCode\Controller</title>
<path fill="none" stroke="gray" d="M1064.32,-2018C1064.32,-2018 1257.32,-2018 1257.32,-2018 1263.32,-2018 1269.32,-2024 1269.32,-2030 1269.32,-2030 1269.32,-2160 1269.32,-2160 1269.32,-2166 1263.32,-2172 1257.32,-2172 1257.32,-2172 1064.32,-2172 1064.32,-2172 1058.32,-2172 1052.32,-2166 1052.32,-2160 1052.32,-2160 1052.32,-2030 1052.32,-2030 1052.32,-2024 1058.32,-2018 1064.32,-2018"/>
<text text-anchor="middle" x="1160.82" y="-2159.2" font-family="Times,serif" font-size="11.00" fill="gray">Controller</text>
</g>
<g id="clust17" class="cluster"><title>cluster_\SourceCode\Controller\Factory</title>
<path fill="none" stroke="gray" d="M1072.32,-2072C1072.32,-2072 1249.32,-2072 1249.32,-2072 1255.32,-2072 1261.32,-2078 1261.32,-2084 1261.32,-2084 1261.32,-2132 1261.32,-2132 1261.32,-2138 1255.32,-2144 1249.32,-2144 1249.32,-2144 1072.32,-2144 1072.32,-2144 1066.32,-2144 1060.32,-2138 1060.32,-2132 1060.32,-2132 1060.32,-2084 1060.32,-2084 1060.32,-2078 1066.32,-2072 1072.32,-2072"/>
<text text-anchor="middle" x="1160.82" y="-2131.2" font-family="Times,serif" font-size="11.00" fill="gray">Factory</text>
</g>
<g id="clust18" class="cluster"><title>cluster_\SourceCode\Service</title>
<path fill="none" stroke="gray" d="M1099.32,-1830C1099.32,-1830 1222.32,-1830 1222.32,-1830 1228.32,-1830 1234.32,-1836 1234.32,-1842 1234.32,-1842 1234.32,-1998 1234.32,-1998 1234.32,-2004 1228.32,-2010 1222.32,-2010 1222.32,-2010 1099.32,-2010 1099.32,-2010 1093.32,-2010 1087.32,-2004 1087.32,-1998 1087.32,-1998 1087.32,-1842 1087.32,-1842 1087.32,-1836 1093.32,-1830 1099.32,-1830"/>
<text text-anchor="middle" x="1160.82" y="-1997.2" font-family="Times,serif" font-size="11.00" fill="gray">Service</text>
</g>
<g id="clust19" class="cluster"><title>cluster_\SourceCode\Entity</title>
<path fill="none" stroke="gray" d="M1099.32,-1318C1099.32,-1318 1222.32,-1318 1222.32,-1318 1228.32,-1318 1234.32,-1324 1234.32,-1330 1234.32,-1330 1234.32,-1810 1234.32,-1810 1234.32,-1816 1228.32,-1822 1222.32,-1822 1222.32,-1822 1099.32,-1822 1099.32,-1822 1093.32,-1822 1087.32,-1816 1087.32,-1810 1087.32,-1810 1087.32,-1330 1087.32,-1330 1087.32,-1324 1093.32,-1318 1099.32,-1318"/>
<text text-anchor="middle" x="1160.82" y="-1809.2" font-family="Times,serif" font-size="11.00" fill="gray">Entity</text>
</g>
<g id="clust20" class="cluster"><title>cluster_\SourceCode\Model</title>
<path fill="none" stroke="gray" d="M1099.32,-1184C1099.32,-1184 1222.32,-1184 1222.32,-1184 1228.32,-1184 1234.32,-1190 1234.32,-1196 1234.32,-1196 1234.32,-1298 1234.32,-1298 1234.32,-1304 1228.32,-1310 1222.32,-1310 1222.32,-1310 1099.32,-1310 1099.32,-1310 1093.32,-1310 1087.32,-1304 1087.32,-1298 1087.32,-1298 1087.32,-1196 1087.32,-1196 1087.32,-1190 1093.32,-1184 1099.32,-1184"/>
<text text-anchor="middle" x="1160.82" y="-1297.2" font-family="Times,serif" font-size="11.00" fill="gray">Model</text>
</g>
<g id="clust21" class="cluster"><title>cluster_\SourceCode\Validation</title>
<path fill="none" stroke="gray" d="M1102.32,-1004C1102.32,-1004 1219.32,-1004 1219.32,-1004 1225.32,-1004 1231.32,-1010 1231.32,-1016 1231.32,-1016 1231.32,-1118 1231.32,-1118 1231.32,-1124 1225.32,-1130 1219.32,-1130 1219.32,-1130 1102.32,-1130 1102.32,-1130 1096.32,-1130 1090.32,-1124 1090.32,-1118 1090.32,-1118 1090.32,-1016 1090.32,-1016 1090.32,-1010 1096.32,-1004 1102.32,-1004"/>
<text text-anchor="middle" x="1160.82" y="-1117.2" font-family="Times,serif" font-size="11.00" fill="gray">Validation</text>
</g>
<!-- \\ApplicationTest\\Controller\\IndexControllerTest -->
<g id="node1" class="node"><title>\\ApplicationTest\\Controller\\IndexControllerTest</title>
<polygon fill="none" stroke="black" points="1233.32,-250 1088.32,-250 1088.32,-214 1233.32,-214 1233.32,-250"/>
<text text-anchor="middle" x="1160.82" y="-229.2" font-family="Courier,monospace" font-size="11.00">IndexControllerTest</text>
</g>
<!-- \\Zend\\Test\\PHPUnit\\Controller\\AbstractHttpControllerTestCase -->
<g id="node34" class="node"><title>\\Zend\\Test\\PHPUnit\\Controller\\AbstractHttpControllerTestCase</title>
<ellipse fill="none" stroke="black" cx="750.54" cy="-18" rx="235.058" ry="18"/>
<text text-anchor="middle" x="750.54" y="-14.3" font-family="Times,serif" font-size="14.00" fill="gray">\ZendTest\PHPUnit\Controller\AbstractHttpControllerTestCase</text>
</g>
<!-- \\ApplicationTest\\Controller\\IndexControllerTest&#45;&gt;\\Zend\\Test\\PHPUnit\\Controller\\AbstractHttpControllerTestCase -->
<g id="edge1" class="edge"><title>\\ApplicationTest\\Controller\\IndexControllerTest&#45;&gt;\\Zend\\Test\\PHPUnit\\Controller\\AbstractHttpControllerTestCase</title>
<path fill="none" stroke="black" d="M1148.76,-213.979C1124.53,-176.258 1062.72,-89.2392 985.819,-50 971.587,-42.7381 956.267,-36.9447 940.518,-32.3411"/>
<polygon fill="none" stroke="black" points="941.234,-28.9079 930.664,-29.6259 939.375,-35.6564 941.234,-28.9079"/>
</g>
<!-- \\Application\\Controller\\Factory\\ControllerFactory -->
<g id="node2" class="node"><title>\\Application\\Controller\\Factory\\ControllerFactory</title>
<polygon fill="none" stroke="black" points="816.04,-1496 685.04,-1496 685.04,-1460 816.04,-1460 816.04,-1496"/>
<text text-anchor="middle" x="750.54" y="-1475.2" font-family="Courier,monospace" font-size="11.00">ControllerFactory</text>
</g>
<!-- \\Zend\\ServiceManager\\Factory\\FactoryInterface -->
<g id="node35" class="node"><title>\\Zend\\ServiceManager\\Factory\\FactoryInterface</title>
<ellipse fill="none" stroke="black" cx="221.63" cy="-1644" rx="181.168" ry="18"/>
<text text-anchor="middle" x="221.63" y="-1640.3" font-family="Times,serif" font-size="14.00" fill="gray">\Zend\ServiceManager\Factory\FactoryInterface</text>
</g>
<!-- \\Application\\Controller\\Factory\\ControllerFactory&#45;&gt;\\Zend\\ServiceManager\\Factory\\FactoryInterface -->
<g id="edge2" class="edge"><title>\\Application\\Controller\\Factory\\ControllerFactory&#45;&gt;\\Zend\\ServiceManager\\Factory\\FactoryInterface</title>
<path fill="none" stroke="black" stroke-dasharray="1,5" d="M718.129,-1496.17C663.97,-1526.59 548.666,-1587.38 443.261,-1617 421.659,-1623.07 398.488,-1627.77 375.575,-1631.42"/>
<polygon fill="none" stroke="black" points="374.783,-1628 365.426,-1632.97 375.84,-1634.92 374.783,-1628"/>
</g>
<!-- \\Application\\Controller\\IndexController -->
<g id="node3" class="node"><title>\\Application\\Controller\\IndexController</title>
<polygon fill="none" stroke="black" points="809.54,-1442 691.54,-1442 691.54,-1406 809.54,-1406 809.54,-1442"/>
<text text-anchor="middle" x="750.54" y="-1421.2" font-family="Courier,monospace" font-size="11.00">IndexController</text>
</g>
<!-- \\Zend\\Mvc\\Controller\\AbstractActionController -->
<g id="node36" class="node"><title>\\Zend\\Mvc\\Controller\\AbstractActionController</title>
<ellipse fill="none" stroke="black" cx="221.63" cy="-1424" rx="180.868" ry="18"/>
<text text-anchor="middle" x="221.63" y="-1420.3" font-family="Times,serif" font-size="14.00" fill="gray">\Zend\Mvc\Controller\AbstractActionController</text>
</g>
<!-- \\Application\\Controller\\IndexController&#45;&gt;\\Zend\\Mvc\\Controller\\AbstractActionController -->
<g id="edge3" class="edge"><title>\\Application\\Controller\\IndexController&#45;&gt;\\Zend\\Mvc\\Controller\\AbstractActionController</title>
<path fill="none" stroke="black" d="M691.391,-1424C624.438,-1424 511.007,-1424 412.499,-1424"/>
<polygon fill="none" stroke="black" points="412.405,-1420.5 402.405,-1424 412.405,-1427.5 412.405,-1420.5"/>
</g>
<!-- \\Application\\Entity\\Entity -->
<g id="node4" class="node"><title>\\Application\\Entity\\Entity</title>
<polygon fill="none" stroke="black" points="792.54,-1362 708.54,-1362 708.54,-1326 792.54,-1326 792.54,-1362"/>
<text text-anchor="start" x="716.54" y="-1347.2" font-family="Courier,monospace" font-size="11.00">«abstract»</text>
<text text-anchor="start" x="730.04" y="-1335.2" font-family="Courier,monospace" font-size="11.00">Entity</text>
</g>
<!-- \\Application\\Module -->
<g id="node5" class="node"><title>\\Application\\Module</title>
<polygon fill="none" stroke="black" points="779.04,-1308 722.04,-1308 722.04,-1272 779.04,-1272 779.04,-1308"/>
<text text-anchor="middle" x="750.54" y="-1287.2" font-family="Courier,monospace" font-size="11.00">Module</text>
</g>
<!-- \\Zend\\ModuleManager\\Feature\\ConfigProviderInterface -->
<g id="node37" class="node"><title>\\Zend\\ModuleManager\\Feature\\ConfigProviderInterface</title>
<ellipse fill="none" stroke="black" cx="221.63" cy="-1590" rx="209.863" ry="18"/>
<text text-anchor="middle" x="221.63" y="-1586.3" font-family="Times,serif" font-size="14.00" fill="gray">\Zend\ModuleManager\Feature\ConfigProviderInterface</text>
</g>
<!-- \\Application\\Module&#45;&gt;\\Zend\\ModuleManager\\Feature\\ConfigProviderInterface -->
<g id="edge4" class="edge"><title>\\Application\\Module&#45;&gt;\\Zend\\ModuleManager\\Feature\\ConfigProviderInterface</title>
<path fill="none" stroke="black" stroke-dasharray="1,5" d="M721.836,-1285.01C674.925,-1278.15 578.769,-1271.06 515.261,-1314 458.277,-1352.53 489.958,-1400.49 443.261,-1451 394.465,-1503.78 321.333,-1544.55 272.819,-1567.92"/>
<polygon fill="none" stroke="black" points="271.293,-1564.77 263.759,-1572.21 274.294,-1571.09 271.293,-1564.77"/>
</g>
<!-- \\Zend\\ModuleManager\\Feature\\ServiceProviderInterface -->
<g id="node38" class="node"><title>\\Zend\\ModuleManager\\Feature\\ServiceProviderInterface</title>
<ellipse fill="none" stroke="black" cx="221.63" cy="-683" rx="211.762" ry="18"/>
<text text-anchor="middle" x="221.63" y="-679.3" font-family="Times,serif" font-size="14.00" fill="gray">\Zend\ModuleManager\Feature\ServiceProviderInterface</text>
</g>
<!-- \\Application\\Module&#45;&gt;\\Zend\\ModuleManager\\Feature\\ServiceProviderInterface -->
<g id="edge5" class="edge"><title>\\Application\\Module&#45;&gt;\\Zend\\ModuleManager\\Feature\\ServiceProviderInterface</title>
<path fill="none" stroke="black" stroke-dasharray="1,5" d="M733.77,-1271.83C658.247,-1184.83 333.537,-810.765 245.002,-708.772"/>
<polygon fill="none" stroke="black" points="247.537,-706.353 238.338,-701.095 242.25,-710.942 247.537,-706.353"/>
</g>
<!-- \\Zend\\ModuleManager\\Feature\\ControllerProviderInterface -->
<g id="node39" class="node"><title>\\Zend\\ModuleManager\\Feature\\ControllerProviderInterface</title>
<ellipse fill="none" stroke="black" cx="221.63" cy="-629" rx="221.761" ry="18"/>
<text text-anchor="middle" x="221.63" y="-625.3" font-family="Times,serif" font-size="14.00" fill="gray">\Zend\ModuleManager\Feature\ControllerProviderInterface</text>
</g>
<!-- \\Application\\Module&#45;&gt;\\Zend\\ModuleManager\\Feature\\ControllerProviderInterface -->
<g id="edge6" class="edge"><title>\\Application\\Module&#45;&gt;\\Zend\\ModuleManager\\Feature\\ControllerProviderInterface</title>
<path fill="none" stroke="black" stroke-dasharray="1,5" d="M747.078,-1271.98C734.316,-1186.16 667.404,-816.448 443.261,-656 436.022,-650.818 428.297,-646.351 420.231,-642.512"/>
<polygon fill="none" stroke="black" points="421.549,-639.269 410.987,-638.44 418.727,-645.675 421.549,-639.269"/>
</g>
<!-- \\User\\Controller\\Factory\\AuthControllerFactory -->
<g id="node6" class="node"><title>\\User\\Controller\\Factory\\AuthControllerFactory</title>
<polygon fill="none" stroke="black" points="1239.82,-788 1081.82,-788 1081.82,-752 1239.82,-752 1239.82,-788"/>
<text text-anchor="middle" x="1160.82" y="-767.2" font-family="Courier,monospace" font-size="11.00">AuthControllerFactory</text>
</g>
<!-- \\User\\Controller\\Factory\\AuthControllerFactory&#45;&gt;\\Zend\\ServiceManager\\Factory\\FactoryInterface -->
<g id="edge9" class="edge"><title>\\User\\Controller\\Factory\\AuthControllerFactory&#45;&gt;\\Zend\\ServiceManager\\Factory\\FactoryInterface</title>
<path fill="none" stroke="black" stroke-dasharray="1,5" d="M1115.09,-788.033C1086.6,-802.057 1051.77,-824.47 1033.82,-856 950.519,-1002.28 1102.53,-1490.69 985.819,-1612 913.252,-1687.43 840.33,-1580.58 751.54,-1636"/>
<path fill="none" stroke="black" stroke-dasharray="1,5" d="M749.54,-1636C606.879,-1725.05 397.422,-1690.34 290.649,-1663.69"/>
<polygon fill="none" stroke="black" points="291.197,-1660.22 280.643,-1661.14 289.469,-1667 291.197,-1660.22"/>
</g>
<!-- \\User\\Controller\\UserController -->
<g id="node7" class="node"><title>\\User\\Controller\\UserController</title>
<polygon fill="none" stroke="black" points="1216.32,-734 1105.32,-734 1105.32,-698 1216.32,-698 1216.32,-734"/>
<text text-anchor="middle" x="1160.82" y="-713.2" font-family="Courier,monospace" font-size="11.00">UserController</text>
</g>
<!-- \\Zend\\Mvc\\Controller\\AbstractRestfulController -->
<g id="node40" class="node"><title>\\Zend\\Mvc\\Controller\\AbstractRestfulController</title>
<ellipse fill="none" stroke="black" cx="750.54" cy="-164" rx="182.768" ry="18"/>
<text text-anchor="middle" x="750.54" y="-160.3" font-family="Times,serif" font-size="14.00" fill="gray">\Zend\Mvc\Controller\AbstractRestfulController</text>
</g>
<!-- \\User\\Controller\\UserController&#45;&gt;\\Zend\\Mvc\\Controller\\AbstractRestfulController -->
<g id="edge7" class="edge"><title>\\User\\Controller\\UserController&#45;&gt;\\Zend\\Mvc\\Controller\\AbstractRestfulController</title>
<path fill="none" stroke="black" d="M1105.03,-714.392C1081.19,-711.286 1054.12,-704.251 1033.82,-689 857.311,-556.405 778.958,-280.231 757.742,-191.845"/>
<polygon fill="none" stroke="black" points="761.128,-190.955 755.435,-182.02 754.313,-192.555 761.128,-190.955"/>
</g>
<!-- \\User\\Controller\\AuthController -->
<g id="node8" class="node"><title>\\User\\Controller\\AuthController</title>
<polygon fill="none" stroke="black" points="1216.32,-680 1105.32,-680 1105.32,-644 1216.32,-644 1216.32,-680"/>
<text text-anchor="middle" x="1160.82" y="-659.2" font-family="Courier,monospace" font-size="11.00">AuthController</text>
</g>
<!-- \\User\\Controller\\AuthController&#45;&gt;\\Zend\\Mvc\\Controller\\AbstractRestfulController -->
<g id="edge8" class="edge"><title>\\User\\Controller\\AuthController&#45;&gt;\\Zend\\Mvc\\Controller\\AbstractRestfulController</title>
<path fill="none" stroke="black" d="M1105.32,-658.456C1081.53,-654.657 1054.43,-647.055 1033.82,-632 872.537,-514.184 785.635,-273.702 759.838,-191.935"/>
<polygon fill="none" stroke="black" points="763.166,-190.851 756.862,-182.336 756.48,-192.924 763.166,-190.851"/>
</g>
<!-- \\User\\Service\\Factory\\AuthenticationServiceFactory -->
<g id="node9" class="node"><title>\\User\\Service\\Factory\\AuthenticationServiceFactory</title>
<polygon fill="none" stroke="black" points="1263.82,-904 1057.82,-904 1057.82,-868 1263.82,-868 1263.82,-904"/>
<text text-anchor="middle" x="1160.82" y="-883.2" font-family="Courier,monospace" font-size="11.00">AuthenticationServiceFactory</text>
</g>
<!-- \\User\\Service\\Factory\\AuthenticationServiceFactory&#45;&gt;\\Zend\\ServiceManager\\Factory\\FactoryInterface -->
<g id="edge10" class="edge"><title>\\User\\Service\\Factory\\AuthenticationServiceFactory&#45;&gt;\\Zend\\ServiceManager\\Factory\\FactoryInterface</title>
<path fill="none" stroke="black" stroke-dasharray="1,5" d="M1129.02,-904.017C1098.93,-923.487 1054.7,-957.508 1033.82,-1000 973.646,-1122.43 1081.13,-1514.4 985.819,-1612 912.693,-1686.89 840.33,-1580.58 751.54,-1636"/>
</g>
<!-- \\User\\Entity\\Profile -->
<g id="node10" class="node"><title>\\User\\Entity\\Profile</title>
<polygon fill="none" stroke="black" points="1192.82,-600 1128.82,-600 1128.82,-564 1192.82,-564 1192.82,-600"/>
<text text-anchor="middle" x="1160.82" y="-579.2" font-family="Courier,monospace" font-size="11.00">Profile</text>
</g>
<!-- \\User\\Entity\\Profile&#45;&gt;\\Application\\Entity\\Entity -->
<g id="edge14" class="edge"><title>\\User\\Entity\\Profile&#45;&gt;\\Application\\Entity\\Entity</title>
<path fill="none" stroke="black" d="M1128.77,-585.084C1099.16,-589.82 1055.9,-601.791 1033.82,-632 943.111,-756.084 1093.18,-1212.01 985.819,-1322 939.173,-1369.79 856.575,-1365.52 802.958,-1356.19"/>
<polygon fill="none" stroke="black" points="803.44,-1352.72 792.969,-1354.33 802.162,-1359.6 803.44,-1352.72"/>
</g>
<!-- \\User\\Entity\\User -->
<g id="node11" class="node"><title>\\User\\Entity\\User</title>
<polygon fill="none" stroke="black" points="1187.82,-546 1133.82,-546 1133.82,-510 1187.82,-510 1187.82,-546"/>
<text text-anchor="middle" x="1160.82" y="-525.2" font-family="Courier,monospace" font-size="11.00">User</text>
</g>
<!-- \\User\\Entity\\User&#45;&gt;\\Application\\Entity\\Entity -->
<g id="edge15" class="edge"><title>\\User\\Entity\\User&#45;&gt;\\Application\\Entity\\Entity</title>
<path fill="none" stroke="black" d="M1133.56,-525.257C1104.39,-523.829 1058.2,-526.694 1033.82,-555 922.358,-684.389 1104.68,-1199.38 985.819,-1322 939.206,-1370.09 856.22,-1365.61 802.561,-1356.17"/>
<polygon fill="none" stroke="black" points="803.043,-1352.7 792.569,-1354.29 801.752,-1359.58 803.043,-1352.7"/>
</g>
<!-- \\User\\Validation\\ProfileValidator -->
<g id="node12" class="node"><title>\\User\\Validation\\ProfileValidator</title>
<polygon fill="none" stroke="black" points="1223.32,-420 1098.32,-420 1098.32,-384 1223.32,-384 1223.32,-420"/>
<text text-anchor="middle" x="1160.82" y="-399.2" font-family="Courier,monospace" font-size="11.00">ProfileValidator</text>
</g>
<!-- \\Zend\\InputFilter\\InputFilter -->
<g id="node41" class="node"><title>\\Zend\\InputFilter\\InputFilter</title>
<ellipse fill="none" stroke="black" cx="750.54" cy="-110" rx="111.28" ry="18"/>
<text text-anchor="middle" x="750.54" y="-106.3" font-family="Times,serif" font-size="14.00" fill="gray">\Zend\InputFilter\InputFilter</text>
</g>
<!-- \\User\\Validation\\ProfileValidator&#45;&gt;\\Zend\\InputFilter\\InputFilter -->
<g id="edge16" class="edge"><title>\\User\\Validation\\ProfileValidator&#45;&gt;\\Zend\\InputFilter\\InputFilter</title>
<path fill="none" stroke="black" d="M1098.23,-402.471C1075.18,-399.469 1050.56,-391.949 1033.82,-375 957.979,-298.238 1065.27,-210.02 985.819,-137 947.404,-101.693 889.18,-94.8468 840.388,-96.8751"/>
<polygon fill="none" stroke="black" points="839.924,-93.3951 830.13,-97.4355 840.306,-100.385 839.924,-93.3951"/>
</g>
<!-- \\User\\Validation\\UserValidator -->
<g id="node13" class="node"><title>\\User\\Validation\\UserValidator</title>
<polygon fill="none" stroke="black" points="1212.82,-366 1108.82,-366 1108.82,-330 1212.82,-330 1212.82,-366"/>
<text text-anchor="middle" x="1160.82" y="-345.2" font-family="Courier,monospace" font-size="11.00">UserValidator</text>
</g>
<!-- \\User\\Validation\\UserValidator&#45;&gt;\\Zend\\InputFilter\\InputFilter -->
<g id="edge17" class="edge"><title>\\User\\Validation\\UserValidator&#45;&gt;\\Zend\\InputFilter\\InputFilter</title>
<path fill="none" stroke="black" d="M1108.73,-331.687C1083.09,-321.162 1053.4,-305.059 1033.82,-282 989.881,-230.254 1038.48,-179.839 985.819,-137 947.723,-106.008 893.893,-98.1312 847.437,-98.5121"/>
<polygon fill="none" stroke="black" points="847.264,-95.0148 837.34,-98.7234 847.411,-102.013 847.264,-95.0148"/>
</g>
<!-- \\User\\Module -->
<g id="node14" class="node"><title>\\User\\Module</title>
<polygon fill="none" stroke="black" points="1189.32,-492 1132.32,-492 1132.32,-456 1189.32,-456 1189.32,-492"/>
<text text-anchor="middle" x="1160.82" y="-471.2" font-family="Courier,monospace" font-size="11.00">Module</text>
</g>
<!-- \\User\\Module&#45;&gt;\\Zend\\ModuleManager\\Feature\\ConfigProviderInterface -->
<g id="edge11" class="edge"><title>\\User\\Module&#45;&gt;\\Zend\\ModuleManager\\Feature\\ConfigProviderInterface</title>
<path fill="none" stroke="black" stroke-dasharray="1,5" d="M1132.24,-470.402C1103,-468.31 1057.82,-470.33 1033.82,-498 958.743,-584.542 1065.42,-1445.6 985.819,-1528 907.648,-1608.91 599.194,-1609.93 399.16,-1601.34"/>
<polygon fill="none" stroke="black" points="399.268,-1597.84 389.123,-1600.89 398.959,-1604.83 399.268,-1597.84"/>
</g>
<!-- \\User\\Module&#45;&gt;\\Zend\\ModuleManager\\Feature\\ServiceProviderInterface -->
<g id="edge12" class="edge"><title>\\User\\Module&#45;&gt;\\Zend\\ModuleManager\\Feature\\ServiceProviderInterface</title>
<path fill="none" stroke="black" stroke-dasharray="1,5" d="M749.54,-64C645.116,-66.9542 590.739,-10.7772 515.261,-83 329.813,-260.449 625.046,-474.801 443.261,-656 437.718,-661.525 431.668,-666.344 425.227,-670.535"/>
<polygon fill="none" stroke="black" points="423.038,-667.763 416.212,-675.867 426.601,-673.788 423.038,-667.763"/>
</g>
<!-- \\User\\Module&#45;&gt;\\Zend\\ModuleManager\\Feature\\ControllerProviderInterface -->
<g id="edge13" class="edge"><title>\\User\\Module&#45;&gt;\\Zend\\ModuleManager\\Feature\\ControllerProviderInterface</title>
<path fill="none" stroke="black" stroke-dasharray="1,5" d="M1132.19,-477.731C1103.36,-479.926 1058.93,-478.225 1033.82,-452 919.448,-332.542 1105.56,-197.077 985.819,-83 948.001,-46.9709 803.752,-62.5229 751.54,-64"/>
<path fill="none" stroke="black" stroke-dasharray="1,5" d="M749.54,-64C645.116,-66.9542 602.65,-25.7622 515.261,-83 322.057,-209.543 247.076,-507.993 227.927,-600.893"/>
<polygon fill="none" stroke="black" points="224.447,-600.445 225.911,-610.938 231.31,-601.822 224.447,-600.445"/>
</g>
<!-- \\SourceCode\\Controller\\Factory\\LanguageControllerFactory -->
<g id="node15" class="node"><title>\\SourceCode\\Controller\\Factory\\LanguageControllerFactory</title>
<polygon fill="none" stroke="black" points="1253.32,-2116 1068.32,-2116 1068.32,-2080 1253.32,-2080 1253.32,-2116"/>
<text text-anchor="middle" x="1160.82" y="-2095.2" font-family="Courier,monospace" font-size="11.00">LanguageControllerFactory</text>
</g>
<!-- \\SourceCode\\Controller\\Factory\\LanguageControllerFactory&#45;&gt;\\Zend\\ServiceManager\\Factory\\FactoryInterface -->
<g id="edge18" class="edge"><title>\\SourceCode\\Controller\\Factory\\LanguageControllerFactory&#45;&gt;\\Zend\\ServiceManager\\Factory\\FactoryInterface</title>
<path fill="none" stroke="black" stroke-dasharray="1,5" d="M1068.11,-2085.51C1056.42,-2082.89 1044.74,-2079.75 1033.82,-2076 713.183,-1965.78 365.933,-1740.89 257.169,-1667.64"/>
<polygon fill="none" stroke="black" points="259.108,-1664.72 248.863,-1662.03 255.189,-1670.52 259.108,-1664.72"/>
</g>
<!-- \\SourceCode\\Controller\\LanguageController -->
<g id="node16" class="node"><title>\\SourceCode\\Controller\\LanguageController</title>
<polygon fill="none" stroke="black" points="1229.82,-2062 1091.82,-2062 1091.82,-2026 1229.82,-2026 1229.82,-2062"/>
<text text-anchor="middle" x="1160.82" y="-2041.2" font-family="Courier,monospace" font-size="11.00">LanguageController</text>
</g>
<!-- \\SourceCode\\Controller\\LanguageController&#45;&gt;\\Zend\\Mvc\\Controller\\AbstractRestfulController -->
<g id="edge19" class="edge"><title>\\SourceCode\\Controller\\LanguageController&#45;&gt;\\Zend\\Mvc\\Controller\\AbstractRestfulController</title>
<path fill="none" stroke="black" d="M1091.69,-2043.42C1069.97,-2039.61 1047.93,-2031.22 1033.82,-2014 939.052,-1898.32 1020.64,-814.429 985.819,-669 939.2,-474.305 814.638,-264.052 768.79,-190.888"/>
<polygon fill="none" stroke="black" points="771.646,-188.856 763.351,-182.265 765.725,-192.59 771.646,-188.856"/>
</g>
<!-- \\SourceCode\\Service\\GraphStructure -->
<g id="node17" class="node"><title>\\SourceCode\\Service\\GraphStructure</title>
<polygon fill="none" stroke="black" points="1216.32,-1982 1105.32,-1982 1105.32,-1946 1216.32,-1946 1216.32,-1982"/>
<text text-anchor="middle" x="1160.82" y="-1961.2" font-family="Courier,monospace" font-size="11.00">GraphStructure</text>
</g>
<!-- \\SourceCode\\Service\\DataCollect -->
<g id="node18" class="node"><title>\\SourceCode\\Service\\DataCollect</title>
<polygon fill="none" stroke="black" points="1206.32,-1928 1115.32,-1928 1115.32,-1892 1206.32,-1892 1206.32,-1928"/>
<text text-anchor="middle" x="1160.82" y="-1907.2" font-family="Courier,monospace" font-size="11.00">DataCollect</text>
</g>
<!-- \\SourceCode\\Service\\AnalysisStructure -->
<g id="node19" class="node"><title>\\SourceCode\\Service\\AnalysisStructure</title>
<polygon fill="none" stroke="black" points="1226.32,-1874 1095.32,-1874 1095.32,-1838 1226.32,-1838 1226.32,-1874"/>
<text text-anchor="middle" x="1160.82" y="-1853.2" font-family="Courier,monospace" font-size="11.00">AnalysisStructure</text>
</g>
<!-- \\SourceCode\\Entity\\CategoryProblem -->
<g id="node20" class="node"><title>\\SourceCode\\Entity\\CategoryProblem</title>
<polygon fill="none" stroke="black" points="1219.82,-1578 1101.82,-1578 1101.82,-1542 1219.82,-1542 1219.82,-1578"/>
<text text-anchor="middle" x="1160.82" y="-1557.2" font-family="Courier,monospace" font-size="11.00">CategoryProblem</text>
</g>
<!-- \\SourceCode\\Entity\\CategoryProblem&#45;&gt;\\Application\\Entity\\Entity -->
<g id="edge23" class="edge"><title>\\SourceCode\\Entity\\CategoryProblem&#45;&gt;\\Application\\Entity\\Entity</title>
<path fill="none" stroke="black" d="M1101.6,-1559.59C1078.1,-1556.59 1052.24,-1549.31 1033.82,-1533 984.886,-1489.67 1034.77,-1437.31 985.819,-1394 935.444,-1349.44 855.222,-1341.22 802.966,-1341.22"/>
<polygon fill="none" stroke="black" points="802.869,-1337.72 792.904,-1341.32 802.939,-1344.72 802.869,-1337.72"/>
</g>
<!-- \\SourceCode\\Entity\\BypassCommand -->
<g id="node21" class="node"><title>\\SourceCode\\Entity\\BypassCommand</title>
<polygon fill="none" stroke="black" points="1212.82,-1524 1108.82,-1524 1108.82,-1488 1212.82,-1488 1212.82,-1524"/>
<text text-anchor="middle" x="1160.82" y="-1503.2" font-family="Courier,monospace" font-size="11.00">BypassCommand</text>
</g>
<!-- \\SourceCode\\Entity\\BypassCommand&#45;&gt;\\Application\\Entity\\Entity -->
<g id="edge24" class="edge"><title>\\SourceCode\\Entity\\BypassCommand&#45;&gt;\\Application\\Entity\\Entity</title>
<path fill="none" stroke="black" d="M1108.61,-1504.63C1084,-1501.71 1055.27,-1494.77 1033.82,-1479 998.863,-1453.3 1020.79,-1419.68 985.819,-1394 932.195,-1354.61 854.101,-1344.93 803.062,-1343.2"/>
<polygon fill="none" stroke="black" points="802.999,-1339.7 792.915,-1342.95 802.826,-1346.7 802.999,-1339.7"/>
</g>
<!-- \\SourceCode\\Entity\\DataType -->
<g id="node22" class="node"><title>\\SourceCode\\Entity\\DataType</title>
<polygon fill="none" stroke="black" points="1196.32,-1470 1125.32,-1470 1125.32,-1434 1196.32,-1434 1196.32,-1470"/>
<text text-anchor="middle" x="1160.82" y="-1449.2" font-family="Courier,monospace" font-size="11.00">DataType</text>
</g>
<!-- \\SourceCode\\Entity\\DataType&#45;&gt;\\Application\\Entity\\Entity -->
<g id="edge25" class="edge"><title>\\SourceCode\\Entity\\DataType&#45;&gt;\\Application\\Entity\\Entity</title>
<path fill="none" stroke="black" d="M1125.12,-1448.01C1099.23,-1444.22 1063.38,-1437.23 1033.82,-1425 1010.35,-1415.29 1009.29,-1403.7 985.819,-1394 925.533,-1369.09 851.177,-1355.93 802.622,-1349.48"/>
<polygon fill="none" stroke="black" points="803.031,-1346 792.667,-1348.2 802.14,-1352.95 803.031,-1346"/>
</g>
<!-- \\SourceCode\\Entity\\Language -->
<g id="node23" class="node"><title>\\SourceCode\\Entity\\Language</title>
<polygon fill="none" stroke="black" points="1196.32,-1416 1125.32,-1416 1125.32,-1380 1196.32,-1380 1196.32,-1416"/>
<text text-anchor="middle" x="1160.82" y="-1395.2" font-family="Courier,monospace" font-size="11.00">Language</text>
</g>
<!-- \\SourceCode\\Entity\\Language&#45;&gt;\\Application\\Entity\\Entity -->
<g id="edge26" class="edge"><title>\\SourceCode\\Entity\\Language&#45;&gt;\\Application\\Entity\\Entity</title>
<path fill="none" stroke="black" d="M1125.01,-1393.4C1052.91,-1383.86 886.938,-1361.91 802.655,-1350.76"/>
<polygon fill="none" stroke="black" points="802.92,-1347.27 792.548,-1349.42 802.002,-1354.2 802.92,-1347.27"/>
</g>
<!-- \\SourceCode\\Entity\\LogicalConnective -->
<g id="node24" class="node"><title>\\SourceCode\\Entity\\LogicalConnective</title>
<polygon fill="none" stroke="black" points="1226.32,-1362 1095.32,-1362 1095.32,-1326 1226.32,-1326 1226.32,-1362"/>
<text text-anchor="middle" x="1160.82" y="-1341.2" font-family="Courier,monospace" font-size="11.00">LogicalConnective</text>
</g>
<!-- \\SourceCode\\Entity\\LogicalConnective&#45;&gt;\\Application\\Entity\\Entity -->
<g id="edge27" class="edge"><title>\\SourceCode\\Entity\\LogicalConnective&#45;&gt;\\Application\\Entity\\Entity</title>
<path fill="none" stroke="black" d="M1095.13,-1344C1014.06,-1344 876.788,-1344 802.668,-1344"/>
<polygon fill="none" stroke="black" points="802.641,-1340.5 792.641,-1344 802.641,-1347.5 802.641,-1340.5"/>
</g>
<!-- \\SourceCode\\Entity\\GraphElement -->
<g id="node25" class="node"><title>\\SourceCode\\Entity\\GraphElement</title>
<polygon fill="none" stroke="black" points="1209.82,-1794 1111.82,-1794 1111.82,-1758 1209.82,-1758 1209.82,-1794"/>
<text text-anchor="middle" x="1160.82" y="-1773.2" font-family="Courier,monospace" font-size="11.00">GraphElement</text>
</g>
<!-- \\SourceCode\\Entity\\GraphElement&#45;&gt;\\Application\\Entity\\Entity -->
<g id="edge28" class="edge"><title>\\SourceCode\\Entity\\GraphElement&#45;&gt;\\Application\\Entity\\Entity</title>
<path fill="none" stroke="black" d="M1111.72,-1778.27C1085.02,-1776.81 1053.35,-1770.09 1033.82,-1749 925.637,-1632.19 1094.05,-1510.77 985.819,-1394 939.472,-1344 856.412,-1337.53 802.664,-1339.35"/>
<polygon fill="none" stroke="black" points="802.49,-1335.85 792.655,-1339.79 802.801,-1342.84 802.49,-1335.85"/>
</g>
<!-- \\SourceCode\\Entity\\SpecialCharacter -->
<g id="node26" class="node"><title>\\SourceCode\\Entity\\SpecialCharacter</title>
<polygon fill="none" stroke="black" points="1223.32,-1740 1098.32,-1740 1098.32,-1704 1223.32,-1704 1223.32,-1740"/>
<text text-anchor="middle" x="1160.82" y="-1719.2" font-family="Courier,monospace" font-size="11.00">SpecialCharacter</text>
</g>
<!-- \\SourceCode\\Entity\\SpecialCharacter&#45;&gt;\\Application\\Entity\\Entity -->
<g id="edge29" class="edge"><title>\\SourceCode\\Entity\\SpecialCharacter&#45;&gt;\\Application\\Entity\\Entity</title>
<path fill="none" stroke="black" d="M1098.19,-1722.86C1075.01,-1719.94 1050.29,-1712.37 1033.82,-1695 940.598,-1596.71 1079.08,-1492.25 985.819,-1394 939.113,-1344.79 856.805,-1338 803.231,-1339.54"/>
<polygon fill="none" stroke="black" points="802.771,-1336.05 792.918,-1339.95 803.049,-1343.05 802.771,-1336.05"/>
</g>
<!-- \\SourceCode\\Entity\\Problem -->
<g id="node27" class="node"><title>\\SourceCode\\Entity\\Problem</title>
<polygon fill="none" stroke="black" points="1192.82,-1686 1128.82,-1686 1128.82,-1650 1192.82,-1650 1192.82,-1686"/>
<text text-anchor="middle" x="1160.82" y="-1665.2" font-family="Courier,monospace" font-size="11.00">Problem</text>
</g>
<!-- \\SourceCode\\Entity\\Problem&#45;&gt;\\Application\\Entity\\Entity -->
<g id="edge30" class="edge"><title>\\SourceCode\\Entity\\Problem&#45;&gt;\\Application\\Entity\\Entity</title>
<path fill="none" stroke="black" d="M1128.62,-1670.26C1099.97,-1670.52 1058.34,-1665.99 1033.82,-1641 955.503,-1561.17 1064.17,-1473.8 985.819,-1394 938.288,-1345.59 856.206,-1338.57 802.905,-1339.85"/>
<polygon fill="none" stroke="black" points="802.519,-1336.36 792.647,-1340.21 802.763,-1343.36 802.519,-1336.36"/>
</g>
<!-- \\SourceCode\\Entity\\SourceCode -->
<g id="node28" class="node"><title>\\SourceCode\\Entity\\SourceCode</title>
<polygon fill="none" stroke="black" points="1202.82,-1632 1118.82,-1632 1118.82,-1596 1202.82,-1596 1202.82,-1632"/>
<text text-anchor="middle" x="1160.82" y="-1611.2" font-family="Courier,monospace" font-size="11.00">SourceCode</text>
</g>
<!-- \\SourceCode\\Entity\\SourceCode&#45;&gt;\\Application\\Entity\\Entity -->
<g id="edge31" class="edge"><title>\\SourceCode\\Entity\\SourceCode&#45;&gt;\\Application\\Entity\\Entity</title>
<path fill="none" stroke="black" d="M1118.62,-1615.78C1091.14,-1614.68 1056.08,-1608.55 1033.82,-1587 970.305,-1525.53 1049.36,-1455.45 985.819,-1394 937.19,-1346.97 855.778,-1339.52 802.873,-1340.34"/>
<polygon fill="none" stroke="black" points="802.596,-1336.84 792.69,-1340.6 802.777,-1343.84 802.596,-1336.84"/>
</g>
<!-- \\SourceCode\\Model\\CodeBypassCommand -->
<g id="node29" class="node"><title>\\SourceCode\\Model\\CodeBypassCommand</title>
<polygon fill="none" stroke="black" points="1226.32,-1282 1095.32,-1282 1095.32,-1246 1226.32,-1246 1226.32,-1282"/>
<text text-anchor="middle" x="1160.82" y="-1261.2" font-family="Courier,monospace" font-size="11.00">CodeBypassCommand</text>
</g>
<!-- \\SourceCode\\Model\\Vertex -->
<g id="node30" class="node"><title>\\SourceCode\\Model\\Vertex</title>
<polygon fill="none" stroke="black" points="1189.32,-1228 1132.32,-1228 1132.32,-1192 1189.32,-1192 1189.32,-1228"/>
<text text-anchor="middle" x="1160.82" y="-1207.2" font-family="Courier,monospace" font-size="11.00">Vertex</text>
</g>
<!-- \\SourceCode\\Validation\\ProfileValidator -->
<g id="node31" class="node"><title>\\SourceCode\\Validation\\ProfileValidator</title>
<polygon fill="none" stroke="black" points="1223.32,-1102 1098.32,-1102 1098.32,-1066 1223.32,-1066 1223.32,-1102"/>
<text text-anchor="middle" x="1160.82" y="-1081.2" font-family="Courier,monospace" font-size="11.00">ProfileValidator</text>
</g>
<!-- \\SourceCode\\Validation\\ProfileValidator&#45;&gt;\\Zend\\InputFilter\\InputFilter -->
<g id="edge32" class="edge"><title>\\SourceCode\\Validation\\ProfileValidator&#45;&gt;\\Zend\\InputFilter\\InputFilter</title>
<path fill="none" stroke="black" d="M1098.22,-1085.84C1074.6,-1083.14 1049.57,-1075.47 1033.82,-1057 901.009,-901.202 1125.98,-286.221 985.819,-137 947.846,-96.5722 884.458,-91.3705 833.186,-95.4341"/>
<polygon fill="none" stroke="black" points="832.741,-91.9602 823.104,-96.3627 833.383,-98.9307 832.741,-91.9602"/>
</g>
<!-- \\SourceCode\\Validation\\UserValidator -->
<g id="node32" class="node"><title>\\SourceCode\\Validation\\UserValidator</title>
<polygon fill="none" stroke="black" points="1212.82,-1048 1108.82,-1048 1108.82,-1012 1212.82,-1012 1212.82,-1048"/>
<text text-anchor="middle" x="1160.82" y="-1027.2" font-family="Courier,monospace" font-size="11.00">UserValidator</text>
</g>
<!-- \\SourceCode\\Validation\\UserValidator&#45;&gt;\\Zend\\InputFilter\\InputFilter -->
<g id="edge33" class="edge"><title>\\SourceCode\\Validation\\UserValidator&#45;&gt;\\Zend\\InputFilter\\InputFilter</title>
<path fill="none" stroke="black" d="M1119.9,-1011.95C1090.54,-996.356 1052.61,-970.825 1033.82,-936 991.577,-857.734 1046.96,-201.586 985.819,-137 947.819,-96.8614 884.747,-91.5481 833.612,-95.4924"/>
<polygon fill="none" stroke="black" points="833.202,-92.0151 823.555,-96.3971 833.829,-98.9869 833.202,-92.0151"/>
</g>
<!-- \\SourceCode\\Module -->
<g id="node33" class="node"><title>\\SourceCode\\Module</title>
<polygon fill="none" stroke="black" points="1189.32,-1174 1132.32,-1174 1132.32,-1138 1189.32,-1138 1189.32,-1174"/>
<text text-anchor="middle" x="1160.82" y="-1153.2" font-family="Courier,monospace" font-size="11.00">Module</text>
</g>
<!-- \\SourceCode\\Module&#45;&gt;\\Zend\\ModuleManager\\Feature\\ConfigProviderInterface -->
<g id="edge20" class="edge"><title>\\SourceCode\\Module&#45;&gt;\\Zend\\ModuleManager\\Feature\\ConfigProviderInterface</title>
<path fill="none" stroke="black" stroke-dasharray="1,5" d="M1132.31,-1152.69C1103.36,-1150.88 1058.62,-1153.19 1033.82,-1180 968.218,-1250.9 1057.79,-1547.58 985.819,-1612 941.026,-1652.09 576.496,-1624.32 367.859,-1604.73"/>
<polygon fill="none" stroke="black" points="368.02,-1601.23 357.736,-1603.77 367.362,-1608.2 368.02,-1601.23"/>
</g>
<!-- \\SourceCode\\Module&#45;&gt;\\Zend\\ModuleManager\\Feature\\ServiceProviderInterface -->
<g id="edge21" class="edge"><title>\\SourceCode\\Module&#45;&gt;\\Zend\\ModuleManager\\Feature\\ServiceProviderInterface</title>
<path fill="none" stroke="black" stroke-dasharray="1,5" d="M749.54,-683C685.43,-651.743 503.918,-658.565 371.818,-668.674"/>
<polygon fill="none" stroke="black" points="371.295,-665.204 361.597,-669.47 371.839,-672.183 371.295,-665.204"/>
</g>
<!-- \\SourceCode\\Module&#45;&gt;\\Zend\\ModuleManager\\Feature\\ControllerProviderInterface -->
<g id="edge22" class="edge"><title>\\SourceCode\\Module&#45;&gt;\\Zend\\ModuleManager\\Feature\\ControllerProviderInterface</title>
<path fill="none" stroke="black" stroke-dasharray="1,5" d="M1132.13,-1157.41C1104.89,-1157.45 1063.21,-1153.77 1033.82,-1134 837.618,-1002 964.091,-786.632 751.54,-683"/>
<path fill="none" stroke="black" stroke-dasharray="1,5" d="M749.54,-683C641.642,-630.393 506.777,-617.396 400.502,-617.292"/>
<polygon fill="none" stroke="black" points="400.299,-613.792 390.309,-617.321 400.319,-620.792 400.299,-613.792"/>
</g>
</g>
</svg>
